<?xml version="1.0" encoding="UTF-8"?>
<svg id="avocado" xmlns="http://www.w3.org/2000/svg" xmlns:xlink="http://www.w3.org/1999/xlink" version="1.1" viewBox="0 0 1920 1920">
  <!-- Generator: Adobe Illustrator 29.2.1, SVG Export Plug-In . SVG Version: 2.1.0 Build 116)  -->
  <defs>
    <style>
      .st0 {
        fill: #c6e5b3;
      }

      .st1 {
        fill: #3e721d;
      }

      .st2 {
        fill: #7c3225;
      }

      .st3 {
        fill: #662113;
      }

      .st4 {
        fill: #a6d388;
      }
    </style>
  </defs>
  <g id="skin-avo">
    <path class="st1" d="M1778.5,319.4c116.6,294.4-70.1,1001-511.6,1291.3-441.4,290.3-993.7,174.1-1125.4-313.9-81.3-301.4,135.9-522.4,577.4-812.6C1160.4,193.9,1663.5,29.2,1778.5,319.4Z"/>
    <path class="st1" d="M1077.1,1300.1c-317.8,221.5-744.8,250.9-899.9,28.4-155.1-222.5,20.4-612.9,338.3-834.4C833.3,272.6,1585.1,16.7,1740.2,239.2c155.1,222.7-345.2,839.4-663,1060.9"/>
  </g>
  <g id="meat-avo">
    <path class="st4" d="M1038.6,1326.8c-280.5,195.5-656.9,150.9-793.7-45.5-136.8-196.4,23.1-544.3,303.7-739.7,280.4-195.4,987-451.4,1124-255,136.8,196.4-235.1,788.2-633.9,1040.3"/>
    <path class="st0" d="M958.4,1197.6c-219.6,153-484.3,152.4-591.3-1.3-107.2-153.7-16.1-402.2,203.5-555.2,219.6-153.1,771.5-352.7,878.7-199,107.1,153.7-271.2,602.6-490.9,755.6Z"/>
  </g>
  <g id="seeds-avo">
    <path class="st3" d="M617,640.3c169.6-113.6,359.7-72.8,477.4,48.5,69.8,72-42.9,262.3-212.4,375.9-169.5,113.5-378.5,85.9-401.4,35.6-70.2-153.8-33-346.4,136.4-460Z"/>
    <path class="st2" d="M710,670.4c73.6-49.4,166.3-39.9,207.3,21,40.8,61,14.3,150.4-59.3,199.8-73.6,49.2-166.3,39.8-207.2-21.1-40.9-61-14.3-150.4,59.3-199.7Z"/>
  </g>
</svg>