<?xml version="1.0" encoding="UTF-8"?>
<svg id="carrot" xmlns="http://www.w3.org/2000/svg" xmlns:xlink="http://www.w3.org/1999/xlink" version="1.1" viewBox="0 0 1920 1920">
  <!-- Generator: Adobe Illustrator 29.2.1, SVG Export Plug-In . SVG Version: 2.1.0 Build 116)  -->
  <defs>
    <style>
      .st0 {
        fill: #d67503;
      }

      .st1 {
        fill: #f4900c;
      }

      .st2 {
        fill: #77b255;
      }
    </style>
  </defs>
  <path id="leaf-carrot" class="st2" d="M1582.7,553.7c172.7-103.7,215.4-406.5,180.8-371.9,34.5-34.5-276.4,0-380,172.8,0-69.1-69.1-345.5-172.7-103.6-103.7,241.8-69.1,276.4-69.1,345.5s138.2,69.1,138.2,69.1c0,0-6.1,132.1,63,132.1s97.6,28.5,339.3-75.1c241.8-103.7-30.5-168.7-99.6-168.7Z"/>
  <path id="body-carrot" class="st1" d="M1158.9,1269.9C786.9,1642,174.4,1909,88,1822.6,1.7,1736.3,268.8,1123.8,640.7,751.7c372-372,563.3-369.4,725.5-207.3,162.2,162.2,164.7,353.5-207.3,725.5Z"/>
  <path id="stripe-carrot" class="st0" d="M1132.2,828.6c-47.5-47.5-135.3-136.1-229.2-298.3-36.8,24-75.9,53.3-117.7,88.3,136.9,176.5,396.8,259.8,346.9,210ZM766.5,1222.9c-50.9-50.9-148-149-249.4-334.5-33.6,40.7-65.9,82.7-96.7,125.6,137.1,175.7,395.8,258.5,346.1,208.9ZM1220.9,1205.8c-174.9-98.1-268.2-191-317.7-240.4-49.8-49.9,33.8,210.8,210.9,347.6,15.2-14.2,87.3-86.3,106.7-107.1ZM625.7,1661.3c43.7-24,88.1-50.1,132.6-78-159.9-93.1-247.6-179.9-294.8-227.1-45-45.1,18.9,163.5,162.2,305.1Z"/>
</svg>