<?xml version="1.0" encoding="UTF-8"?>
<svg id="coconut" xmlns="http://www.w3.org/2000/svg" xmlns:xlink="http://www.w3.org/1999/xlink" version="1.1" viewBox="0 0 1920 1920">
  <!-- Generator: Adobe Illustrator 29.2.1, SVG Export Plug-In . SVG Version: 2.1.0 Build 116)  -->
  <defs>
    <style>
      .st0 {
        fill: #8b5e3c;
      }

      .st1 {
        fill: #603913;
      }

      .st2 {
        fill: #f5f8fa;
      }

      .st3 {
        fill: #99aab5;
      }

      .st4 {
        fill: #a97c50;
      }
    </style>
  </defs>
  <g id="shell-coco">
    <path class="st0" d="M355.9,1562.8C-1.2,1205.7,30.9,594.7,427.7,197.9l1293,1293c-396.8,396.7-1007.8,428.8-1364.8,71.8Z"/>
    <path class="st1" d="M427.7,197.9c-198.3,198.3-69.7,648.6,287.3,1005.7,357.1,357,807.4,485.6,1005.7,287.3,198.3-198.3,69.8-648.6-287.3-1005.7C1076.3,128.2,626-.4,427.7,197.9Z"/>
    <path class="st4" d="M625.3,1699.2c4.6-14.5,42.5-3.1,56.5,0,352.2,77.5,592.3-70.3,594.9-71.6,13.8-6.9,29.4-1.7,34.8,11.4,5.4,13.1-1.3,29.3-15,36.2-11.4,5.7-244.2,129.5-615.9,47.7-4.6-1.1-36.6-6.7-39.7-9.7-6.2-6.3-18.8-4.3-15.6-14ZM200.5,1192.9c5.8,5.8,5.5,10.8,14.7,8.4,14.6-3.7,15.2-26.3,13-40.5-25-162.1,18.3-330.4,93.5-525.8,5.4-14.3-1.4-29.2-14.9-33.1-13.8-4.1-29.4,4.3-34.9,18.5-79,204.9-104.5,387.9-78,559.4.9,5.3,3.3,9.8,6.7,13.2ZM726.6,1659.1c3.6,3.6,8.5,6,14.2,6.7,191.4,21.6,350.1-57.8,356.8-61.2,13.7-7,20.3-23.2,14.8-36.3-5.5-13.2-21.2-18.1-34.9-11.1-1.5.8-139.3,93.6-314,73.8-14.5-1.6-42-.8-45.2,14-1.8,9,2.7,8.4,8.3,14Z"/>
  </g>
  <g id="meat-coco">
    <path class="st2" d="M1680.8,1260.5c11.6,11.6,28.4,17.1,45.1,14,19.7-3.6,35.4-18.4,40.1-37.8,3.4-13.7,80-338.8-153-571.8s-141.4-191.7-165.4-230.8c-20.3-21.1-37.2-13.7-76.1-52.6s-71.4-114.2-225.5,31.9c-17.8,16.9-19.8,44.6-5.9,64.8l534.8,775.3c1.8,2.5,3.8,4.9,5.9,7.1Z"/>
    <path class="st1" d="M1309,414.6c35.9,35.9,74.1,72,74.1,72,0,0,122.1,142.4,194,214.3,215.5,215.5,139.7,523.8,139.7,523.8l-591.8-796.3s141.8-52.9,184.1-13.8ZM1373.6,345.8c-93.1-73-242.6-16-279.4,20.1-34.7,34.7-23.7,100.8,4.1,141.1l534.8,775.3c3.6,5.1,7.5,9.8,11.8,14.1,23.4,23.4,56.9,34.2,90.2,28.1,39.3-7.2,70.8-36.8,80.3-75.6,3.7-14.9,86.6-366.9-166.4-619.9s-98.4-88.3-147.8-148c-16.7-21.5-60.2-73.2-105.3-118.2l-22.2-16.9Z"/>
    <path class="st2" d="M499.5,269.8c-158.7,158.7-30.1,544.6,287.3,862,317.3,317.4,703.3,446,862,287.3s30-544.7-287.3-862C1044.1,239.7,658.2,111.1,499.5,269.8Z"/>
    <path class="st3" d="M605,379.8c-117.7,117.7-4.2,422.3,253.7,680.2,257.9,257.9,562.4,371.4,680.2,253.7,117.7-117.7,4.2-422.2-253.7-680.2-257.8-257.9-562.4-371.5-680.2-253.7Z"/>
    <path class="st3" d="M1102.2,535.3l59.7-17c28.5-15.8,68.8-16.9,96.3,8.5l61.5,64.7c29.1,35,97.5,108.5,152.1,163.2,193.4,193.4,117.8,443,114.4,453.6-2.9,9.2-10.8,16-20.4,17.5-8.1,1.2-16.2-1.5-21.8-7.2-1.1-1.1-2-2.2-2.9-3.5l-446.8-643.5c-4-5.8-5.5-12.9-4-19.8,1.5-6.9,5.7-12.8,11.8-16.5Z"/>
    <path class="st2" d="M1283,1354s-163-105.9-191.5-191.5c-31.9-95.7-236.8-114.4-268.7-210.2-31.8-95.7-85.1-242-114.4-300.6-29.3-58.6-63.9,0-95.8-95.8-31.9-95.8-95.8-159.7-95.8-159.7,0,0,0,447,95.8,542.8,95.8,95.8,478.9,478.9,510.9,446.9,31.9-31.9,159.6-31.9,159.6-31.9Z"/>
    <path class="st1" d="M1236.2,1439s-189.5-128.9-219.2-218.1c-33.3-99.8-268.7-133-301.9-232.8-33.3-99.8-81.1-278.7-97.2-299.3-46.5-59.9-66.5,0-99.8-99.8-33.3-99.8-99.8-166.3-99.8-166.3,0,0,0,465.6,99.8,565.3,99.8,99.8,498.8,498.8,532.1,465.6,33.3-33.2,186-14.7,186-14.7Z"/>
    <path class="st0" d="M1181.9,1526.9s-183.4-119.1-215.5-215.5c-35.9-107.7-323.3-179.6-359.2-287.3-35.9-107.8-35.9-251.4-71.8-287.3-35.9-36-71.8,0-107.7-107.8-35.9-107.7-107.7-179.6-107.7-179.6,0,0,0,502.9,107.7,610.6,107.7,107.7,538.7,538.7,574.6,502.8,36-35.9,179.6-35.9,179.6-35.9Z"/>
  </g>
</svg>