<?xml version="1.0" encoding="UTF-8"?>
<svg id="kiwi" xmlns="http://www.w3.org/2000/svg" xmlns:xlink="http://www.w3.org/1999/xlink" version="1.1" viewBox="0 0 1920 1920">
  <!-- Generator: Adobe Illustrator 29.2.1, SVG Export Plug-In . SVG Version: 2.1.0 Build 116)  -->
  <defs>
    <style>
      .st0 {
        fill: none;
      }

      .st1 {
        fill: #9db621;
      }

      .st1, .st2, .st3, .st4 {
        fill-rule: evenodd;
      }

      .st2 {
        fill: #4c2c1f;
      }

      .st3 {
        fill: #a05021;
      }

      .st4 {
        fill: #feedb5;
      }

      .st5 {
        clip-path: url(#clippath);
      }
    </style>
    <clipPath id="clippath">
      <rect class="st0" x="394.8" y="70.7" width="1376.3" height="1849.2"/>
    </clipPath>
  </defs>
  <g id="skin-kiwi">
    <g class="st5">
      <path class="st3" d="M1660.9,1271.2c-461.2,1134.5-1265.2,435.9-1265.2,435.9,0,0,273.7,166.3,708.4-393.3,436.4-561.8,139.3-1242.9,139.3-1242.9,0,0,817.7,215.8,417.5,1200.3"/>
    </g>
  </g>
  <path id="meat-kiwi" class="st1" d="M1444.4,607.3c-57.4,304.1-314.5,1307.2-1028.7,1109.8-113.9-31.5-193.2-218.8-210.1-321.4-57.1-346.8,125.4-810.5,379.1-1049.3C711.2,227.3,993.5,0,1240.6,46.5c250.7,47.3,245.7,338.3,203.8,560.8"/>
  <g id="mid-meat-kiwi">
    <path class="st4" d="M936,497.8s112.3,38.4,89.1,148c-20.5,96.7-110.1,340.5-216.9,430.7-19.1,16.1-154.5,141.4-212,95.6-47.5-37.8-46.1-156.1-45.6-166.8,7.1-145.9,104.7-123.8,152-206.7,39.5-69.4,136.5-282.6,233.5-300.8"/>
    <path class="st4" d="M895.6,607.5h0l2.9-.2h-.3c0,0-.3,0-.3,0h-3l.8.3ZM833,271.2h0l1-4.5,3.6-2.5h0l4.2.9,2.6,3.8h0l.5,1.8.5,1.8.5,1.8.5,1.8.5,1.8.5,1.8.4,1.8.5,1.8.4,1.8.5,1.8v.4l.4,1.4.4,1.8.4,1.8.4,1.8.4,1.8.4,1.8.4,1.8.4,1.8.4,1.8.4,1.8.4,1.8.4,1.8.8,3.7,1.7,7.3.8,3.7.8,3.7.8,3.7.4,1.8.4,1.9.8,3.7.8,3.7,2.3,11,.8,3.7.8,3.7v.2l.7,3.5.7,3.7.7,3.7,1.4,7.3,1.4,7.4.6,2.8,2.2,11.9,1.3,7.3,1.3,7.4v.5c0,0,.6,3.2.6,3.2l.6,3.7.6,3.7.6,3.7,1.3,7.3.4,2.2.2,1.5.5,3.7.5,3.7.6,3.7.6,3.7.5,3.7.4,2.3.2,1.4.5,3.7,1,7.4.5,3.7.5,3.7.3,1.8.2,1.7h0c0,.1.3,2,.3,2l.5,3.7.3,1.8.3,1.9,1.3,9.2.3,2.2.3,2.2v.9c0,0,.3,1.3.3,1.3l.3,2.2.6,4.4.6,4.4.6,4.4.6,4.4.4,2.6.2,1.8.6,4.4.6,4.4.6,4.4.6,4.4.6,4.4.6,4.4.6,4.4,1.2,8.8.2,1.6.2,1.1v.5l.9,6.4.2,1.6.2,1.6.2,1.6.2,1.6v.8c0,0,.2.8.2.8v.8l.2.8v.8c0,0,.2.8.2.8v.8l.2.8v.8l.2.8v.8l.2.9v4.2l-.2,1.6-.2,1v.5l-.2.5v.6c0,0,0,.2,0,.2v.2h0l.7.6h0l.3,3.6-2.3,2.9h-.2l-.2.2h-.2c0,0-.2.2-.2.2h-.2l-.3.2h-.3l-.3.2h-2.1l-.4-.2h-.4c0,0-.4-.3-.4-.3l-.4-.2-.4-.2-.3-.2-.2-.2h0l-.3-.3-.2-.3-.2-.3-.2-.2-.2-.3-.2-.2v-.2c0,0-.3-.2-.3-.2l-.2-.4v-.2l-.2-.2v-.4c0,0,0-.2,0-.2v-9.6h0v-.4h0v-.4h0c0,0,0,0,0,0h0c0,0,0,0,0,0h0c0,0,0,0,0,0h0c0,0,0,0,0,0v.2-.2h0l-.2-.7-.2-.8-.2-.8-.2-.8-.4-1.5-.2-.8-.4-1.5-.2-.8-.2-.8-.2-.8-.4-1.6-.4-1.5-.4-1.5-.4-1.6-.4-1.5-.4-1.6-.9-3.1v-.5c0,0-.4-1.1-.4-1.1l-.4-1.6-2.2-8.6-1.1-4.3-1.1-4.3-1.1-4.3-1.1-4.3-1.1-4.3-1.1-4.3-1.1-4.3-.4-1.7-.6-2.6-2.1-8.7-1-4.3-1.1-4.3-.5-2.2-.3-1.3-.2-.9-.5-2.2-.5-2.2-.8-3.7-.4-1.8-.8-3.7-.4-1.8-.4-1.8-.4-1.8-.4-1.8-.4-1.8h0c0-.1-.4-1.8-.4-1.8l-.4-1.8-.4-1.8-.4-1.9-.7-3.7-.7-3.7-.7-3.7-.7-3.7-.3-1.4-.4-2.3-.7-3.7-.7-3.7-.7-3.7-.6-3.7-.6-3.7-.3-1.5-.3-2.2-.6-3.7-.5-3.7-1.1-7.4-.5-3.7-.5-3.2v-.5l-1-7.4-.9-7.4-1.5-12-.3-2.9-.9-7.4-.9-7.4-.4-3.7-.4-3.7-.4-3.6v-.2l-.4-3.7-.4-3.7-.4-3.7-.4-3.7-.4-3.7-.4-3.7-.4-3.7-.2-1.9-.2-1.8-.8-7.4-.9-7.4-.4-3.7-.4-3.7-.2-1.9-.2-1.8-.2-1.8-.9-7.4-.2-1.8-.2-1.8-.2-1.9-.2-1.8-.2-1.5v-.4l-.3-1.8-.2-1.8-.2-1.8-.2-1.9-.2-1.8-.2-1.9-.2-1.8-.2-1.8-.2-1.8-.3-1.8-1.1-.2ZM851,663.7l2.6-1.7,3.7.5h0l-.5-.3-.7-.3-1-.2h-1.1l-1.1.4-.9.6-.7.6-.2.3h0ZM728.9,377.5v-4.7l2.8-3.3h4.3l3.5,3.1h0l1.5,2.8,1.5,2.8,1.5,2.8,1.5,2.8,1.5,2.8.7,1.3.8,1.5,1.5,2.8,1.5,2.8,2.9,5.6,1.5,2.8,4.4,8.4,1.5,2.8,1.5,2.8,1.5,2.8,1.5,2.8,1,2,.4.8,1.4,2.8,1.4,2.8,1.4,2.8,1.4,2.8,1.4,2.8,1.4,2.8,1.4,2.8,1.1,2.3.3.6,1.4,2.8,1.4,2.9,1.4,2.8,1.4,2.9,1.4,2.9,1.4,2.8,1.4,2.9,1.4,2.9v.2l1.4,2.7,8.1,17.3,1.3,2.7h0c0,.1,1.3,3,1.3,3l1.3,2.9,1.3,2.9,2.6,5.8,2.4,5.4.2.4,2.4,5.9,5.2,12.7,1.9,4.9,4.5,11.8,1.3,3.3.9,2.6,1.7,4.5,3.3,9,1.6,4.5h0l1.6,4.5,1.6,4.5,1.6,4.5,1.6,4.5.9,2.6.6,1.9,7.6,22.6,3,9,.9,2.8.6,1.9.3.9.5,1.4.5,1.4.5,1.4.9,2.9.2.7.2.7.2.7.2.7.2.7.2.7.9,2.9.2.7.2.7.2.7.3.9v.5c0,0,0,.5,0,.5l.2.7v.9c0,0,.3,1.1.3,1.1v.6l.2.6v.6l.2.6v.7l.2.6.2,1.3v1.3c0,0,.2.6.2.6v2.8h0v2.1c0,0,0,.3,0,.3,0,0-.2.4-.2.4l-.2.5-.4.6-.6.6-.4.3-.5.3-.5.3h0l-.6.2-.6.2h-1.7l-.9-.3-.7-.3-.3-.2h0l-2-3,.6-3.2h0c0,0-.2.5-.2.5h0v.3h0v.2h0v.2h0v.2h0c0,0,0-.1,0-.1h0c0,0,0-.1,0-.1h0c0,0,0-.1,0-.1h0v-.2h0v-1.2c0,0,0-.2,0-.2l-.2-.5v-.5c0,0-.3-.6-.3-.6v-.6c0,0-.3-.6-.3-.6l-.2-.6-.2-.6-.2-.6-.2-.6-.2-.6-.2-.5-.3-1-.3-.8-.2-.6v-.4c0,0-.2,0-.2,0h0c0,0,0,0,0,0v.5c0,0-.2-.7-.2-.7l-.3-.7-.3-.7-.3-.7-.3-.7-.3-.7-.3-.7-.9-2-.3-.7-.3-.7-.3-.7-.3-.7-1.3-2.6-.6-1.3-.7-1.3-.6-1.3-.4-.8-.9-1.8-1.3-2.7-4.2-8.6-4.2-8.6-4.2-8.6-2.1-4.3-.9-1.8-1.2-2.5-2.1-4.3-2.1-4.3-2-4.3-2-4.2h0l-2-4.4-2-4.3-2-4.3-1-2.1-1-2.2-1.2-2.5-1.5-3.2-2.6-5.8-2.6-5.8-2.2-4.8-.4-1-2.5-5.8-2.6-5.8-2.6-5.8-.2-.4-2.3-5.5-2.4-5.9-2.4-5.8-1.2-2.9h0c0-.1-1.1-3-1.1-3l-1.2-2.9-1.2-3-2.3-5.9-1.2-3-1.2-2.9-1.1-2.7v-.2l-1.2-3-1.1-3-1.2-3-1.1-3-2.3-5.9-1.1-3-1.2-3-.2-.6-.9-2.3-1.1-3-1.1-3-1.1-3-1.1-3-1.1-3-1.1-3-1.2-3-.3-.9-.8-2.1-3.3-8.9-1.1-3-1.1-3-1.1-3-1.1-3-1.1-3-2.3-5.9-1.1-3-1.1-3-.6-1.6-.5-1.3-2.2-5.9-1.1-3-1.1-3-1.1-3h0l-.7,3.2ZM616.4,478.9l2.3,2.8,4.6,5.6,2.3,2.8,1.5,1.8.8,1,2.3,2.8,4.6,5.6,4.6,5.6,2.3,2.8,2.3,2.8,2.3,2.8,2.3,2.8,2.3,2.8,2.2,2.7v.2c0,0,2.4,2.8,2.4,2.8l2.3,2.8,2.3,2.8,2.3,2.8,2.3,2.8,2.3,2.8,1.9,2.4.4.4,2.3,2.8,2.3,2.8,2.3,2.8,2.3,2.8,2.3,2.8,2.3,2.8,2.1,2.5.2.3,2.3,2.8,2.3,2.8,2.3,2.8,2.3,2.8,2.3,2.8,2.3,2.8,1.4,1.7.9,1.1,2.4,2.7,2.4,2.7,4.7,5.5,2.4,2.7,1.2,1.4,3.6,4,4.8,5.4,4.9,5.4h0l4.9,5.3,5,5.3,4.4,4.7,5.5,5.8,9.3,9.6.8.8,10.1,10.3.2.2.2.2.7.7.9,1,1.2,1.2.5.6,2.4,2.4,3.6,3.7,4.1,4.2,4.4,4.6,2.3,2.4,2.4,2.4,2.4,2.5,2.4,2.5,2.4,2.5,1,1.1,1.3,1.4,2.4,2.4,2.3,2.3,2.2,2.2,2.1,2.1,1,1,1,1,1,.9.9.9.9.9.8.8.8.8.8.8.7.7.7.7.6.6.6.6.5.5.5.4.2.2.2.2.2.2h0l.2.2.2.2.2.2.2.2.2.2.3.2.2.2.3.2.5.2.8.3h2.5c0,0,.6-.4.6-.4h0l2.5-2.8v-3.5h0l-2.6-2.5h-3.7l1.2-.3h1.3l1,.2h0l.5.2h0l.3.2h.2c0,0,.2.2.2.2h.3c0,0,0,0,0,0h0c0,0,0,0,0,0h0c0,0,0-.3,0-.3h0v-.2c0,0-.3-.2-.3-.2l-.2-.2-.4-.4-.4-.5-.5-.6-.5-.7-.5-.7-.6-.8-.6-.8-.7-.9-.7-.9-.7-1-.8-1-.8-1.1-.8-1.1-.9-1.1-1.8-2.4-1.8-2.5-1.9-2.6-2-2.7-1.1-1.5-.9-1.2-4.1-5.5-2.1-2.8-2-2.7-2-2.7-3.8-5.2-3.5-4.7-3-4.1-2-2.7-.5-.6-1-1.3-.8-1.1-.6-.8-.3-.3-.2-.3-4.5-5.7-4.5-5.7-.7-.9-8.3-10.4-5-6.2-4.1-5-4.6-5.6-4.6-5.6h0l-4.7-5.5-4.7-5.5-3.5-4.1-1.2-1.4-2.4-2.7-2.4-2.7-7.3-8.1-.9-1-1.5-1.6-2.5-2.6-2.5-2.6-5-5.3-2.5-2.6-2.5-2.6-.3-.3-2.3-2.3-5.1-5.2-2.5-2.6-2.6-2.6-2.5-2.6-2.6-2.6-2.6-2.6-2.6-2.6-2.6-2.6-7.8-7.7-2.6-2.5h0c0-.1-2.5-2.5-2.5-2.5l-2.6-2.5-2.6-2.5-2.6-2.5-2.6-2.5-2.6-2.5-5.3-5-2.6-2.5-2.6-2.5-2.6-2.5-.9-.9-1.7-1.6-2.7-2.5-2.7-2.5-2.7-2.5-2.7-2.4h0l-4.3-1.8-4.1,1.4h0l-1.6,4,1.6,4.4h0v-.8ZM790.6,751.8h0v.4h0v.4h0v.3h0v.3h0v.2h0v-3.6l-.2.5h0v.5h0v.5h0v.5h.2ZM791.2,749.4v.2l1.4-1.7h0l-.3.2h0l-.3.2-.3.3h0l-.3.4h0l-.3.4h0ZM480.5,602.4l-2.8-3.7.4-4.3h0l3.5-2.6,4.6.5h0l3.2,1.6,6.3,3.2,3.2,1.6,3.2,1.6,1.3.6,1.9.9,3.2,1.6,3.2,1.6,3.2,1.6,12.7,6.3,3.2,1.6,3.2,1.6,3.2,1.6,3.2,1.6,3.2,1.5,1.6.8,1.5.8,6.3,3.2,9.5,4.7,3.2,1.6,3.2,1.6,1.6.8,1.5.7,3.2,1.6,15.8,7.8,3.2,1.5,2.3,1.1.9.5,3.2,1.6,3.2,1.6,3.2,1.6,3.2,1.6,3.2,1.6,3.2,1.5,3.2,1.6,1.6.8,1.5.8,3.1,1.6,3.1,1.6,3.2,1.6,3.1,1.6,7.4,3.7,2,1.1,3.1,1.7,6.2,3.3,6.2,3.2,2.4,1.2.8.4,3.1,1.7,3.1,1.7,3.1,1.7,3.1,1.7,3.1,1.6,3.1,1.7,1.5.8,1.6.9,3.1,1.7,4.7,2.5,2.3,1.3,2.4,1.3,2.3,1.2,2.3,1.3,2.4,1.2h.2c0,0,2.2,1.3,2.2,1.3l2.3,1.3,2.3,1.3,2.3,1.3,2.3,1.3,2.3,1.3,2.3,1.2,2.3,1.2,2.3,1.2h.2c0,0,2.1,1.3,2.1,1.3l2.3,1.3,2.3,1.3,2.3,1.2,2.3,1.3,2.3,1.2,2.3,1.2,2.3,1.2,3.5,1.8,1.2.6,2.4,1.2,2.4,1.2,1.2.6,2.4,1.2,1.2.6,1.2.6,1.2.6,1.2.6,1.2.6.5.2.5.3,1,.5h.2l.8.5,1,.5,1,.5,1,.5,1.9,1,1,.5,1.9,1,1,.5.5.2.5.3,1,.5.5.2,1,.5.5.2.5.2.5.2.5.2.5.2.5.2.5.2.5.2.9.4.5.2,1,.4.5.2,1.9.7.9.3.5.2.5.2.9.3h.5c0,0,1,.4,1,.4h.2l1.1.4h.4c0,0,.2,0,.2,0h.7c0,0,0,0,0,0h3.1l2.7,2.5h0v.5c0,0,.2.4.2.4v.4l.2.5v1.7c0,0-.3.6-.3.6l-.2.5-.3.5-.3.4-.3.4-.3.3-.3.3-.3.2-.3.2h-.3c0,0-.3.2-.3.2h-.2l-.2.2h-.6c0,0-.3,0-.3,0h-7.1l-.6-.2h-.6c0,0-.6-.2-.6-.2h-.6c0,0-.6-.2-.6-.2l-1.7-.4h-.6c0,0-.6-.3-.6-.3l-.6-.2h-.6c0,0-.6-.3-.6-.3l-.6-.2-.6-.2-.6-.2-.6-.2-1.7-.5-.6-.2-.6-.2-.6-.2-.6-.2-.6-.2-1.1-.4-.6-.2-.6-.2-.5-.2-.6-.2-1.1-.4-1.1-.4-1.1-.4-1.1-.4-1.1-.4-2.1-.8-1-.4-1-.4-1-.4-.8-.3h-.2l-1-.4-.5-.2-.5-.2-1.3-.5-1.3-.5-1.3-.5-2.5-.9-1.3-.5-1.3-.5-1.3-.5-1.3-.5-1.3-.5-10-3.8-2.5-1-2.5-1-2.5-1-5-2-2.5-1-2.3-.9h-.2l-2.5-1.1-2.5-1-2.5-1-2.5-1-2.5-1-2.5-1-2.5-1-2.5-1-2.3-1h-.2l-2.4-1.2-2.4-1.1-4.9-2.1-2.4-1.1-4.9-2.1-3.3-1.4-1.7-.8-1.5-.7-3.2-1.5-3.2-1.5-3.2-1.5-3.2-1.5-3.2-1.5-3.2-1.5-.8-.4-2.4-1.2-6.4-3.1-3.2-1.6-3.2-1.6-3.2-1.6-2-1-1.1-.6-3.2-1.7-3.1-1.7-3.2-1.7-3.1-1.7-3.1-1.7-3.1-1.7-1.5-.8-1.6-.9-3.1-1.7-3.1-1.7-3.1-1.7-6.2-3.5-3.1-1.7-3.1-1.8-.9-.5-2.2-1.3-3.1-1.8-9.2-5.4-3.1-1.8-3-1.8-3.1-1.8-1.5-.9-1.6-1-3-1.8-3-1.9-6.1-3.7-3-1.9-3-1.9-3-1.9-1.5-.9-1.5-1-3-1.9-3-1.9-9-5.7-3-1.9-3-1.9-3-1.9-3-1.9-3-1.9-7.8-5-1.2-.8-3-1.9-3-1.9-8.9-5.8h0l.8.2ZM737.7,823.8l.2.8.2-1.4-.5.7h0ZM738.3,826l.3,1.1,1.3,1.2-1.6-2.2h0ZM728.3,826.4l-.8-.2-.8-.2-.8-.2-.8-.2-2.3-.7-.8-.2-3-.9-1.5-.5-1.5-.5-1.5-.5-1.5-.5-2.3-.8-.6-.2-2.1-.7-2.1-.7-4.1-1.4-2.1-.7-2.1-.7-2.1-.7-2.1-.7-2.1-.8-2-.7-10.3-3.7-2-.8-2-.8-.9-.3-1.2-.5-4.1-1.6-8.1-3.2-4-1.6-1.9-.8-2.1-.8-4-1.6-4-1.6-5.8-2.3-3.4-1.4-2.4-1-5.8-2.4-5.8-2.4-5-2.1-.8-.4-11.5-5.1-5.6-2.4h-.2l-5.7-2.8-11.3-5.4-1.7-.8-3.9-2-16.8-8.4-.6-.3-5-2.6-5.6-2.9-5.6-2.9-5.6-2.9-.5-.3-5-2.7-5.5-3-5.5-3-5.5-2.9h0l-11-6.1-5.5-3-5.5-3-11-6.1-2-1.1-3.4-1.9-5.5-3.1-5.5-3.1h0l-3.2-3.6v-4.3h0l3.4-2.8,4.8.2h0l11.7,4.6,3.7,1.4,2.2.9,5.8,2.3,5.8,2.3,5.8,2.3,5.8,2.3,5.8,2.3,5.8,2.3h0l5.7,2.4,5.8,2.4,5.8,2.4,5.3,2.1.5.2,11.6,4.8,5.8,2.4,5.2,2.1.6.2,5.8,2.5,5.8,2.4,5.8,2.4,4,1.7,1.7.8,5.7,2.6,5.7,2.5,5.7,2.5h.2l5.5,2.7,11.3,5.4.8.4,4.8,2.4,11.2,5.6,2.3,1.1,3.3,1.7,5.6,2.9,3.9,2,3.9,2,2,1,1.8,1,3.8,2,3.8,2,3.8,2,1.9,1,1.9,1,1.1.6.8.4,1.9,1,1.9,1,1.9,1,1.9,1,3.8,2,1.9,1,1.9,1,1.9,1,1.9,1,1.9,1,1.9,1,1.9,1,1.9,1,1.9,1,3.9,1.9.6.3,2.2,1.1,1.4.7,1.4.7,1.4.7,1.4.7,1.4.7,2.1,1,.7.3.7.3.7.3.7.3,1.4.6.7.3.7.3.7.3,1.4.6,2.1.9.7.3h-.4,0,0,.5c0,0,.4,0,.4,0,0,0,.5.3.5.3h.5c0,0,.5.3.5.3h.6c0,0,.5.3.5.3h.5c0,0,.5.2.5.2h.4c0,0,.3,0,.3,0h.2-1l-1.6.5-.5.7,1.5-1,3.7.5h0l.5.4.4.4.4.5.4.6.3.6.2.7v2.2c0,0-.4.8-.4.8l-.4.7-.5.6-.6.5-.7.4h0l-.8.3-.8.2h-3.5c0,0-1.2,0-1.2,0,0,0-.6-.2-.6-.2h-1.1c0,0-.5,0-.5,0h-.5c0,0-.2,0-.2,0h-.8c0,0-.9-.3-.9-.3l-.8-.2-3.1-.9-.8-.2-.8-.2h.4ZM374.9,795l.8.4,1.6.8.8.4.8.4.8.4.8.4,1.7.9.9.4,1.7.9.9.4.9.4,1.8.9,1.9.9.5.2.4.2,1,.4,1,.4,2,.9,1,.4,1,.4,2.1.9,1,.4,1,.4,1.1.4,1.1.4,2.1.9,1.1.4,1.1.4,2.2.9,1.1.4,1.1.4,1.1.4,1.1.4,1.2.4,1.2.4,1.1.4,1.2.4,1.2.4,1.2.5,1.2.4,1.2.4,1.2.4,1.2.5,1.2.4,2.4.9h.4c0,0,2.1.9,2.1.9l2.5.9,2.5.9,2.5.9,2.6.9,2.6.9,2.6.9,2.6.9,2.6.9,1.6.5,1,.4,2.7.9,5.4,1.8,5.4,1.8,5.5,1.8,4.8,1.6.7.2,5.6,1.7,5.6,1.8,5.6,1.8,5.7,1.8.6.2,2.3.7,2.8.8,2.8.8,2.8.9,5.7,1.7,2.8.9,1.5.5,1.3.3,2.9.8,2.8.8,2.8.8,2.8.8,2.8.8,2.8.8,1.2.3,1.7.4,2.8.8,5.6,1.5,1.4.4,1.4.4,1.4.4,4.1,1.1,1.4.4.8.2.6.2,5.4,1.5,4,1.1,1.3.4,1.3.4,1.3.4,1.3.4,1.3.4,1.3.4,1.3.4,1.3.4h.2l1.1.4,1.3.4,3.9,1.1,2.5.7,2.5.7,1.3.4,1.2.4,1.2.4,1.2.4,1.2.4,1.2.4,1.2.4.5.2.7.2,1.2.4,1.2.4,2.4.7,2.3.7,1.1.4,1.1.4,1.1.4,1.1.4,2.2.8,1.1.4,1.1.4,1.1.4,2.1.8,2.1.8,1,.4,2.1.8,1,.4,1,.4,1,.4,1,.4,1,.4,1,.4,1.9.8.9.4,1.8.8.9.4h0l.8.4.9.4.9.4,1.7.8.4.2.4.2.4.2.4.2.4.2.4.2.4.2.4.2.4.2.4.2.4.2.4.2.4.2.4.2.4.2.4.2.4.2.4.2.7.4.4.2.3.2.4.2.3.2.4.2.3.2.3.2.3.2.3.2.3.2.3.2.3.2.6.4.3.2.3.2.3.2.3.2.3.2.3.2.3.2.3.2.3.2.3.2.3.2.3.2.6.4.3.2.3.2.3.2.5.4.2.2.2.2.2.2.5.4.2.2.2.2.2.2.2.2.2.2h0l.2.2.4.4h0l3.4,1.6,3.3-1h0l1.5-3.2-1-3.6h0l-.2-.3-.5-.7-.7-.8-.2-.3-.2-.3-.3-.3-.2-.3-.3-.3-.3-.3-.3-.3-.3-.3-.3-.3-.3-.3-.3-.3-.3-.3-1.2-1.2-.3-.3-.3-.3-.6-.6-.3-.3-.3-.3-1.3-1.2-.7-.6-.3-.3-1-.9-.7-.6-.4-.3-.3-.3-.4-.3-.4-.3-.4-.3-.4-.3-.4-.3-.4-.3-.4-.3-.4-.3-.4-.3-.4-.3-.8-.6-.4-.3-.4-.3-.4-.3-.4-.3-.4-.3-.4-.3-.4-.3-.4-.3-.4-.3-.4-.3-.4-.3-.4-.3-.4-.3-.4-.3-.4-.3-.4-.3-.9-.6-.9-.6-.8-.5h0l-.9-.6-.9-.6-1.9-1.1-1.9-1.1-1-.6-2-1.1-1-.5-2-1.1-2.1-1.1-1-.5-1-.6-1.1-.6-1.1-.5-2.1-1.1-1.1-.5-1.1-.6-1.1-.5-1.1-.5-1.1-.5-1.1-.6-1.2-.5-1.1-.6-1.1-.5-1.2-.5-1.2-.6-1.2-.5-1.2-.5-1.2-.5-.7-.3-.5-.2-1.2-.5-1.2-.5-1.2-.5-2.4-1-2.5-1-1.3-.5-1.2-.5-1.3-.5-3.8-1.6-1.3-.5-1.3-.5-1.3-.5-1.3-.5-2.6-1-2.6-1-1.3-.5-2.7-1-1.3-.5-2.7-1-2.7-1-1.3-.5-1.4-.5-.6-.2-.8-.3-1.4-.5-1.4-.5-1.4-.5-1.4-.5-2.8-.9-4.2-1.4-5.6-1.9-1.6-.6-1.2-.4-2.8-.9-2.8-.9-2.8-.9-5.7-1.7-2.9-.9-1.3-.4-1.5-.4-2.9-.8-2.9-.8-2.9-.8-2.9-.8-2.9-.8-2.9-.8-2.3-.6-.6-.2-5.8-1.4-5.7-1.4-5.7-1.4-5.7-1.4-.7-.2-5-1.2-5.6-1.3-2.8-.7-2.8-.7-2.7-.6-2.7-.7-2.7-.7-1.1-.2-1.7-.4-2.7-.6-5.3-1.3-2.6-.6-2.6-.6-2.6-.6-2.6-.6-2.5-.6-2.1-.5h-.4l-2.5-.7-1.2-.3-1.2-.3-1.2-.3-1.2-.3-1.2-.3-1.2-.3-1.2-.3-1.2-.3-1.2-.3-1.2-.3-1.1-.3-1.2-.3-1.1-.3-1.1-.3-1.1-.3-1.1-.3-1.1-.3-1.1-.3-1.1-.3-1.1-.3-1.1-.3-1.1-.3-1.1-.3-1-.3-1-.3-1-.3-1-.3-1-.3-1-.3-1-.3-2-.6-1-.3h-.4c0,0-.5-.3-.5-.3l-.9-.3-1.9-.6-.9-.3-.9-.3-.9-.3-2.6-.9-1.7-.6-.8-.3-.8-.3-1.6-.6-1.5-.6-.8-.3h-4.6l-3.2,2.8h0v4.3c-.1,0,2.9,3.5,2.9,3.5h0l1.4.8ZM613.2,956.7h-.2,1.1-.2c0,0,0,0,0,0h0l-.2-.2h-.2,0l-.3.2ZM613.7,953.5v1.4l.2.8h0l.2.4h0v.3h0v.2h0v.2h0c0,0-.5-3.5-.5-3.5v.4l-.2-.2ZM614,952.5l1.2-1.8h-.2c0,0-.8,1.2-.8,1.2l-.2.6ZM616.6,949.7l2-.3h-.2l-1.8.3h0ZM321.7,968.8l-2-3.8h0l1.6-4.1,4.2-2.1,3.1-.4,3.1-.4,3.1-.4,3.1-.4,3.1-.4h.4l2.7-.4,3.1-.4,3.1-.4,3.1-.4,3.1-.4,3.1-.4,3.1-.4,3.1-.4,3.1-.4,3.1-.4,3.1-.4,3.1-.4,1.8-.2,1.3-.2,3.1-.4,3.1-.4,12.5-1.6,3.7-.5,2.6-.3,6.2-.7,12.5-1.5,3-.4,3.3-.3,6.3-.7,3.1-.3,3.1-.3,6.3-.6h1.1c0,0,2-.3,2-.3l3.1-.2,3.2-.3,6.3-.5,3.2-.2,2.7-.2h.4l3.2-.2,6.3-.3,3.2-.2h3.2c0,0,3-.2,3-.2h9.8c0,0,3.2,0,3.2,0h3.2c0,0,3.2,0,3.2,0h40c0,0,1.4,0,1.4,0h23.9l3.7.2h2.1l2.2.2h2.8c0,0,.7,0,.7,0h.7c0,0,.7,0,.7,0h.7c0,0,.7,0,.7,0h.7l.7.2h.7l.7.2,2.2.3h.7c0,0,.7.2.7.2l1.4.2h.7c0,0,.7.2.7.2h.7c0,0,.7.2.7.2l1.4.2h.7c0,0,.7.3.7.3l.7.2h.7c0,0,1.4.4,1.4.4h.7c0,0,.7.3.7.3l.7.2.7.2.7.2.7.2,2.1.6.7.2.7.2.7.2.7.2.7.2h.5c0,0,.2,0,.2,0l.2.2h.2l.2.2h.2l.2.2h.2l.2.2.2.2.3.2.2.2.2.2.2.2.2.2.2.2.4.3.3.3.3.2h.2c0,0,0,.3,0,.3h0l-.2-.2h-.3c0,0-.4-.2-.4-.2h-.4l2.7,1.8h0v.2c0,0,0,.2,0,.2,0,0,.3.3.3.3l.2.4.2.6v1.1c0,0,0,.7,0,.7h0l-.2.8-.3.8-.4.6-.5.5-.5.4-.6.4-.6.3h0l-.6.2h-.6c0,0-.6.2-.6.2h-.5l-.8-.2-.5-.2-.4-.2-.3-.2-.3-.2h-.2c0,0-.2-.2-.2-.2h-.2v-.2l-.2-.2-.3-.2-.3-.2-.3-.2h-.8c0,0-.6,0-.6,0l-1.3-.2h-.6l-.6-.2h-.6l-1.3-.2h-1.9c0,0-1.3,0-1.3,0h-.6c0,0-.7,0-.7,0h-14c0,0-.6,0-.6,0h-2c0,0-.7,0-.7,0h-2.7c0,0-.7,0-.7,0h-.7c0,0-.7,0-.7,0l-3.4.4h-1.4c0,0-2.8.4-2.8.4l-1.4.2-1.4.2-1.4.2-1.4.2-4.2.6-4.2.6-1.4.2-2.8.4-1.4.2-1.4.2-1.4.2-2.8.4-4.2.6-1.4.2-1.4.2-2.8.4-1.4.2-1.4.2-2.8.3h-1c0,0-.4.2-.4.2h-1.4c0,0-1.3.3-1.3.3h-1.4c0,0-.7,0-.7,0h-.7c0,0-1.6,0-1.6,0,0,0-1.5.3-1.5.3l-3.1.3-3.1.3-3.1.3-2.1.2h-1l-3.1.3-3.1.3-3.1.3-3.1.3-3.1.3-3.1.3h-.2l-2.9.2-6.2.5-3.1.2-6.2.5h-.4l-2.7.2-3.1.2-3.1.2-6.2.3-3.1.2h-2c0,0-1.1,0-1.1,0h-3.1c0,0-3.1.2-3.1.2h-3.1c0,0-3.1.2-3.1.2l-6.3.2h-3.3c0,0-3,.2-3,.2l-12.6.3-6.3.2h-6.3c0,0-6.3,0-6.3,0,0,0-6.3.2-6.3.2h-6.4c0,0-1.3,0-1.3,0h-52.6c0,0-3.2,0-3.2,0h0l-4.4-1.7.6-.6ZM639.1,997.3v.2h0v.2h0v.2h0v.2h0v.2c0,0,0,0,0,0v.2h0v.2c0,0,0,0,0,0v.2h0l.2.2h.2c0,0,.2.2.2.2h.2c0,0,.2,0,.2,0h1l-1.6-2.2h-.6ZM620.8,1021.9l-.9.6-1.5.9-.5.3h0c0,0,0,0,0,0l-1.2.9-1.2.8-1.2.8-1.2.8-1.2.8-1.2.8-1.2.8-1.2.8-1.2.8-1.2.8-1.2.8-2.4,1.6-1.2.8-4.9,3.2-4.9,3.2-9.9,6.2-2.5,1.5-1.3.8-1.1.7-2.5,1.5-2.5,1.5-7.4,4.5-5,3-3.7,2.2-6.3,3.8-5,3-2.5,1.5-2.5,1.5-3.3,2-3,1.8-.3.2-3.3,1.9-3.3,1.9-10,5.8-3.3,1.9-1.9,1.1-1.5.8-3.4,1.9-3.4,1.9-3.4,1.9-3.4,1.9-3.4,1.9-3.1,1.7h-.2c0,0-3.4,1.9-3.4,1.9l-3.4,1.8-3.4,1.8-3.4,1.8-3.4,1.8-3.4,1.8-2.5,1.3-.9.5-3.4,1.7-3.5,1.7-3.4,1.7-3.5,1.7-3.4,1.7-6.9,3.4-1.7.9-1.7.8-3.5,1.7-3.5,1.7-6.9,3.3-3.5,1.7-3.5,1.7-5.7,2.7-1.2.6-7,3.3-14,6.6-5.6,2.6-1.4.6-7,3.2-14,6.4-7,3.2-7,3.2-7,3.2-2.2,1-4.8,2.2-7,3.2-7,3.2h0l-4.8.4-3.5-2.7h0l-.2-4.4,3.1-3.7,6.7-3.9,6.6-3.9,4.5-2.7,2.1-1.2,6.7-3.9,13.3-7.7,13.3-7.8,6.7-3.9,1.3-.8,5.3-3.1,13.3-7.7,6.7-3.9,1.2-.7,5.5-3.1,20-11.5,1.7-1,1.7-.9,3.4-1.9,3.3-1.9,3.3-1.9,3.4-1.9,3.3-1.9,3.4-1.9,3.3-1.9.9-.5,2.5-1.3,3.4-1.8,6.7-3.7,3.4-1.8,6.7-3.7h.2c0,0,3.2-1.8,3.2-1.8l3.4-1.8,3.4-1.8,3.4-1.8,6.8-3.6,1.5-.8,2-1,3.4-1.7,3.4-1.7,3.4-1.8,3.4-1.7,3.4-1.8,3.4-1.8.4-.2,3.1-1.5,3.4-1.7,2.6-1.3,2.6-1.3,5.2-2.6,6.5-3.3,3.9-1.9,5.2-2.6,2.6-1.3,2.6-1.3,2.6-1.3,2.6-1.3,2.6-1.3,1.2-.6,1.4-.7,2.6-1.3,2.6-1.3,5.2-2.5,2.6-1.3,2.6-1.3,2.6-1.3,2.6-1.3,2.6-1.3,1.3-.7,1.3-.6,2.6-1.3,1.3-.6,5.1-2.6,1.3-.7,1.3-.7,1.3-.7,1.3-.7,1.3-.7h.2v-.2h.2c0,0,.6-.4.6-.4l1.6-.8,1-.5,1.1-.5,1.2-.6,1.3-.6,1.3-.6.7-.3.7-.3.7-.4.7-.3.7-.4.7-.4,1.5-.8,3.7-2,.7-.4.7-.4.7-.4.7-.4,1-.6.6-.4.3-.2.3-.2.3-.2.3-.2.3-.2.3-.2.3-.2.6-.4.3-.2.3-.2.3-.2.2-.2.5-.3.2-.2.2-.2.2-.2.2-.2h.2c0,0,.2-.3.2-.3h.2c0,0,.2-.3.2-.3h.2l.3-2.9h0l2.8-2.2,3.7.4h.2l.2.2h.2c0,0,.4.4.4.4l.2.2.4.4.2.2.2.2.2.2.2.3.2.3.2.3v.3c0,0,.3.3.3.3l.2.6v.3h0v2.7c0,0,0,.2,0,.2v.2c0,0,0,.2,0,.2v.2c0,0-.3.4-.3.4v.2l-.2.2v.2l-.4.5-.4.6v.2c0,0-.3.3-.3.3l-.2.3-.2.3-.2.3-.2.3-.2.3-.2.3-.2.3-.2.2-.7.8-.3.2-.3.3-.8.8-.3.2-.9.8-.9.8-.3.3-.3.3-.6.5-.3.3-.3.3-1,.8-.4.3-.3.3-.7.5-.7.5-.7.5-2.2,1.6-.7.5-2.2,1.5-.7.5-.7.5-.7.5-1.4.9-.7.4-.7.4-.6.4-.6.4-1.2.8-1.1.7-1,.7-1.1.7ZM614,1069.8l-3.6-.7h-.6l-.6.3h-.3c0,0-.5.4-.5.4h-.2c0,0-.2.3-.2.3h-.2c0,0-.2.3-.2.3l-.2.2-.2.2-.2.2-.2.2-.4.3-.2.2-.6.6-.2.2-.2.2-.2.2-.4.4-.2.2-.4.4-.2.2-.2.2-.2.2-.4.5-.5.5-.2.3-.2.3-.2.3-.2.3-.5.6-.5.6-.5.6-.5.6-.5.7-.5.7-.5.7-.5.7-.6.7-.5.8-.6.8-.6.8-.6.8-.6.8-1.2,1.7-.6.9-.6.9-.7.9-.7.9-.7,1-.7,1-.7,1-.7,1-.7,1-.7,1.1-.7,1.1-.7,1.1-.7,1.1-.7,1.1h0l-.7,1.2-.8,1.2-.8,1.2-.8,1.2-.8,1.2-.8,1.2-.8,1.2-.8,1.3-.8,1.3-.8,1.3-.8,1.3-.8,1.3-.8,1.3-.8,1.3-.9,1.3-.9,1.4-.9,1.4-1.7,2.8-.9,1.4-.9,1.5-.9,1.5-1.8,2.9-1.8,3-1.8,3-1.9,3.1-.9,1.5-1,1.6-1.9,3.2-1.9,3.2-1.9,3.3-1.9,3.3-1.9,3.3-2,3.4-1.1,1.8-.9,1.6-2,3.5-2,3.5-2,3.5-2,3.5-2,3.6-2,3.6-.4.8-1.6,2.8-2,3.6-2,3.7-2,3.7-4,7.4-1.1,2-.9,1.7-2,3.8-2,3.8-3.9,7.6-2,3.8-.9,1.8-1,2-3.8,7.7-3.8,7.7-1.9,3.8-1.5,3.1-.4.8-1.8,3.8-1.8,3.8-1.8,3.8-1.8,3.8-1.8,3.8-1.8,3.8-1.7,3.7-.3.6-1.4,3.1-1.7,3.7-1.7,3.7-1.7,3.7-3.3,7.2-3.2,7.1-.4.9-2.7,6.2-3,6.9-3,6.7-2.9,6.5-1.2,2.6-1.6,3.7-2.7,6.2-2.6,5.9-2.5,5.7-2.4,5.5-2.2,5.2-2.1,4.9-2,4.7-1.9,4.4-.6,1.4-1.1,2.6-1.6,3.7-1.4,3.4-1.3,3-1.1,2.7-.9,2.3-.8,1.9v4.6c-.1,0,2.7,3.3,2.7,3.3h4.3c0,0,3.5-2.9,3.5-2.9h0l1-1.8,1.2-2.2,1.4-2.5,1.6-2.9,1.8-3.2,1.9-3.5,1.4-2.5.7-1.4,2.3-4.1,2.4-4.4,2.6-4.7,2.7-5,2.9-5.2,3-5.4,3.1-5.6,3.2-5.9,2-3.5,1.4-2.5,3.4-6.3,3.5-6.4,3.6-6.6,3.2-5.9.4-.8,3.7-6.9,3.8-7,1.9-3.5,1.9-3.6,1.9-3.6,1.7-3,.3-.6,1.9-3.6,2-3.7,1.9-3.7,2-3.7,2-3.7,2-3.7,2-3.7.4-.7,1.6-3,1.9-3.8,2-3.8,1.9-3.8,3.9-7.6,1-2,.9-1.8,1.9-3.8,1.9-3.8,1.9-3.8,3.8-7.6.8-1.7,1-2.1,1.8-3.8,1.8-3.8,1.8-3.8,3.6-7.5,1.4-2.9.4-.8,1.7-3.7,1.7-3.7,1.7-3.6,1.7-3.6,1.7-3.6,1.7-3.6.8-1.7.9-1.9,1.7-3.5,1.6-3.5,1.6-3.4,1.6-3.4,1.6-3.4,1.6-3.3.8-1.7.8-1.6,1.5-3.2,1.5-3.2,1.5-3.2,1.5-3.1.7-1.5.7-1.5.7-1.5.7-1.5.7-1.5.7-1.5.7-1.4,1.4-2.8.7-1.4.7-1.4.7-1.4.7-1.3,1.3-2.7.6-1.3,1.3-2.5.6-1.3.6-1.2.6-1.2.6-1.2h0l.6-1.2.6-1.2.6-1.1.6-1.1,1.1-2.2.6-1.1.5-1,.6-1,.5-1,.5-1,.5-1,1-1.9.5-.9.5-.9.9-1.7.5-.8.5-.8.4-.8.4-.8.4-.7.8-1.4.4-.7.4-.6.4-.6.4-.6.4-.6.5-.8.2-.2.2-.2.3-.5.3-.4.2-.2v-.2c0,0,.4-.4.4-.4v-.2c0,0,.3-.2.3-.2v-.2c0,0,.2,0,.2,0l.2-.3h0l.2-.2h.2c0,0,0,0,0,0l.2-.2h.5,0,0,0,0,0,0-.4,0-.4,0-.2,0-.4l3-2.2.6-3.5h0l-2.1-3h-.2ZM675.5,1092h0l-3.5.7-2.2,3-.4,1.3h0l-.3,1.3-.4,1.3-.3,1.3-1.4,5.4-.3,1.4-.7,2.7-.3,1.4-.3,1.4-.3,1.4-.4,1.4-.3,1.4-.4,1.4-.3,1.4-.3,1.4-.4,1.4-.3,1.4-.7,2.8-.3,1.4-.4,1.4-.7,2.9-.3,1.5-.3,1.5-.3,1.3v.2l-.4,1.5-.3,1.5-.3,1.5-.3,1.5-.6,3-.6,3-.6,3-.6,3-.6,3-.6,3.1-.6,3.1-.6,3.1-.6,3.1-.6,3.1-.6,3.1-.6,3.1-1.2,6.3-.6,3.2v.4l-.6,2.8-.6,3.2-.6,3.2-.6,3.2-.6,3.2-.6,3.2-1.1,6.5-.5,3v.2l-.6,3.3-.5,3.3-.5,3.3-.5,3.3-.5,3.3-.5,3.3-1,6.7-.3,1.9-.2,1.4-.5,3.4-.9,6.8-1.4,10.2-.5,3.4-.4,3.1v.3l-.5,3.4-.4,3.4-.4,3.4-.4,3.4-.4,3.4-.4,3.4-.4,3.5-.3,2.7v.8l-.4,3.5-.3,3.5-.3,3.5-.3,3.5-.3,3.5-1,10.4v.4l-.3,3-1,13.9-.2,3.5-.3,3.5-.2,3.5-.2,3.5-.2,2.3v1.2l-.3,3.5-.4,6.9-.2,3.5-.2,3.5-.6,10.3-.3,5.9v.9l-.4,6.8-.3,6.8-.3,6.8-.3,6.8-.3,5.8v.9l-.3,6.7-.3,6.7-.3,6.6-.3,6.6-.2,6.6-.3,6.5-.5,12.9v2.2l-.4,10.5-.4,12.5,1.5,4.7,3.8,2.2h0l4.1-1.6,2.2-4.4h0l1.6-12.4,1.4-10.4.3-2.2,1.6-12.8.8-6.4.8-6.5.8-6.5.9-6.6.9-6.6.9-6.6v-.9c0,0,.8-5.8.8-5.8l.8-6.7.9-6.7.9-6.8.9-6.8v-.9c0,0,.8-5.9.8-5.9l.8-6.8.4-3.4,1.7-13.7.4-3.4.2-1.2.3-2.3.4-3.4.4-3.4,1.2-10.3.4-3.5.9-6.9.4-3v-.4l.4-3.4.8-6.9.4-3.5.4-3.4.4-3.4.4-3.4.4-3.4v-.8l.3-2.6.3-3.4.3-3.4,1-10.3.3-3.4.4-3.4v-.3l.3-3.1.3-3.4.3-3.4.3-3.4.3-3.4.3-3.4.3-3.4.3-3.4v-1.4c0,0,.3-1.9.3-1.9l.6-6.7.3-3.4.3-3.3.3-3.3.3-3.3.3-3.3.3-3.3v-.2l.3-3,.3-3.3.3-3.3.3-3.3.3-3.2.6-6.5.6-6v-.4l.3-3.2.3-3.2.3-3.2.3-3.2.3-3.1.3-3.1.6-6.2.3-3.1.3-3.1.3-3,.3-3,.3-3,.4-3,.3-3,.2-1.5.2-1.5.2-1.5.2-1.5v-.2l.2-1.3.3-2.9.2-1.5.2-1.5.2-1.5.2-1.4.2-1.4.4-2.9.2-1.4.4-2.8.2-1.4.2-1.4.2-1.4.2-1.4.2-1.4.2-1.4.2-1.4.2-1.4.2-1.4.2-1.4.2-1.4.2-1.4.4-2.7.2-1.3.2-1.2h0l.2-1.4h0l-.8-3.6-2.9-2.1-1-.2ZM785.3,1504l-.3-5.5-.2-4.5-.6-10-.6-10-.6-10-.6-10-.6-10-.4-7.5-2-32.4-.3-5.3-2.3-34.6-.3-4.1-1.2-15.9-1.5-19.9v-1l-.9-9-.9-10-.9-9.9-.3-3.3-.7-6.6-1.1-9.9-1.1-9.9-.4-3.6-.8-6.4-1.2-9.9-1.2-9.9-.6-5.3-.6-4.6-1.3-9.9-1.3-9.9-.9-6.9v-.7l-.9-6.2-.9-6.9-.9-6.9-1.4-10.4-.2-1.4-.3-2-.5-3.5-.5-3.4-1-6.9-.5-3.4-.5-3.5-.5-3.5-.5-3.4-.5-3.5-.5-3.4-1.1-6.9-.5-3.4-.5-3.5-.5-3.4-.6-3.5-.3-1.7-.3-1.7-1.2-6.9-.6-3.5v-.6c0,0-.3-1.3-.3-1.3l-.4-1.8-.4-2.3-.3-1.3-.3-1.4-.3-1.4-.3-1.5-.3-1.5-.3-1.6-1-4.8-.3-1.6-.3-1.6-.2-.8-.2-.8-.2-.7-.2-.7-.2-.7-.2-.7-.2-.7-.2-.7v-.6c0,0-.3-.6-.3-.6l-.2-.6v-.6c0,0-.3-.6-.3-.6l-.2-.5v-.5c0,0-.3-.5-.3-.5v-.4c0,0,0-.2,0-.2h0v-.4c0,0,0-.2,0-.2l-.3-.6v-.2l-.2-.2v-.3c0,0-.3-.3-.3-.3l-.2-.3-.2-.3-.2-.3-.2-.3-.3-.3-.4-.3-.5-.3-.6-.3-.8-.2h-2.3c0,0-2.8,2.5-2.8,2.5l-.4,3.6h0l2.3,2.8,3.7.5-.9.2h-.9l-.8-.2-.7-.3-.5-.3-.4-.3h0l-.3-.3h0l-.2-.2h0l-.2-.2-.2-.3h0l-.2-.3h0v-.2h0v.2h0v.2h0v1.5c0,0,0,.5,0,.5l.2,1.1v.6l.2.6v.6l.2.7v.7l.2.7v.7l.2.7v.8l.2.8.2,1.5.2,1.6.2,1.6.2,1.6.2,1.6.2,1.6v1.5c0,0,.3,1.5.3,1.5v1.4c0,0,.3,1.4.3,1.4v1.3c0,0,.3,2.3.3,2.3l.2,1.8v1.3c0,0,.2.5.2.5l.2,3.4.2,3.5.2,3.5v1.7c0,0,.2,1.8.2,1.8l.2,3.5.2,3.5.2,3.5.2,3.5.2,3.5.2,3.5.2,3.5.2,3.5.2,3.5.2,3.5.2,3.5.2,3.5.8,13.9v2.1c0,0,.2,1.4.2,1.4l.2,3.5.4,6.9.4,7,.4,6.9.4,6.2v.7l.5,6.9.7,10,.7,10,.3,4.7.4,5.3,1.5,19.9.5,6.4.3,3.6.9,9.9.9,10,.6,6.6.3,3.3,1,9.9,1,9.9.9,9v1c0,0,2.4,19.8,2.4,19.8l1.8,15.8.5,4,4.3,34.4.7,5.3,2.6,19.8,1.6,12.4,1,7.5,1.3,9.9,1.4,9.9,1.3,9.9,1.4,9.9,1.4,9.9.6,4.4.8,5.5,1.4,9.9,1.4,9.9h0l2.2,4.2,4.2,1.5h0l3.8-2.2,1.4-4.6h0l-.6-10-.5-10,.9-.3ZM927,1333.1l-4-9.7-4-9.6h0l-4-9.6-4-9.6-4-9.6-4-9.7-2-4.8-1.5-3.7-.5-1.2-4.1-9.6-2.1-4.8-2.1-4.8-2-4.8-1.4-3.4-.6-1.4-2.1-4.8-4.2-9.6-4.2-9.6-1.6-3.7-.5-1.1-2.2-4.8-2.2-4.8-4.3-9.5-2.2-4.8-1.3-2.7-1-2-2.3-4.7-2.3-4.7-2.3-4.7-1.1-2.4-2.3-4.7-.3-.7-.8-1.6-2.4-4.7-1.2-2.3-1.2-2.3-1.2-2.3-2.4-4.7-1.2-2.3-1-1.8-.3-.5-2.5-4.6-1.3-2.3-1.2-2.3-1.3-2.3-1.3-2.3-1.3-2.3-1.3-2.3-1.2-2.3-1-1.7-.3-.5-1.3-2.3-2.6-4.6-1.3-2.3-2.6-4.6-2.6-4.6-1.3-2.3-1.2-2.1v-.2l-1.4-2.3-1.3-2.3-1.3-2.3-1.3-2.3-1.3-2.3-1.3-2.3-1.3-2.3-1.3-2.3-2.7-4.5h0l-1.3-2.3-1.4-2.2-1.4-2.2-2.7-4.5-2.8-4.5-1.4-2.2-1.4-2.2-1.4-2.2-1.4-2.2-1.4-2.2-2.8-4.4-1.4-2.2h0c0,0,0-.3,0-.3l-.2-.2-.2-.3-.5-.8-.5-.9-.6-1.1-.7-1.2-.8-1.3-.9-1.5-.3-.6v-.2c0,0-.6-.8-.6-.8l-1-1.6-.5-.8-.5-.9-.5-.9-.5-.9-1.1-1.8-.6-.9-.6-.9-.6-.9-.6-.9-.6-.9-.6-.9-.6-.9-.6-.9-.6-.9-.6-.9-.6-.9-.6-.9-.3-.4-.3-.4-.3-.4-.3-.4-.6-.8-.6-.8-.3-.4-.3-.4-.3-.4-.3-.4-.3-.4-.3-.4-.3-.4-.9-1.1-.6-.7-.3-.3-.6-.6-.3-.3-.3-.3-.3-.3-.6-.6-.6-.6-.6-.5-.3-.2-.6-.5h-.2c0,0-.2-.2-.2-.2h-.2c0,0-.2-.2-.2-.2h-.2c0,0-.3-.3-.3-.3h-.2c0,0-.2-.2-.2-.2h-.2c0,0-.4-.3-.4-.3h-.2c0,0-.2-.2-.2-.2l-.4-.2h-.6c0,0-.5,0-.5,0,0,0-.3-.2-.3-.2h-2.7l-.3.2h-.3c0,0-.2.2-.2.2l-2.6,2.6v3.6h0l2.5,2.5,3.7.2h-3.6.2c0,0,0,0,0,0l.2.2.2.2h.2c0,0,.2.3.2.3h0l.2.2.2.2.3.5.2.2.4.5.2.3.2.3.2.3.2.3.2.3.2.3.2.3.2.3.2.3.2.4.4.7.2.4.2.4.2.4.2.4.2.4.2.4.5.8.9,1.7.2.4.2.4.9,1.8.5.9.5.9.4.9.9,1.9.4.9.4.9.4.9.4.9.4.9.4.9.4.9.4.9.4.9.4.8.4.8.4.8v.2l.3.6.7,1.5.6,1.4.6,1.3.5,1.2.5,1,.4.9.2.4.2.3.2.3v.3c0,0,1.3,2.4,1.3,2.4l5.7,11.7,2.2,4.7,1.1,2.4,1.1,2.3,2.2,4.7,1.1,2.3,1.1,2.4,1.1,2.4,1.1,2.3,1.1,2.4,1.1,2.3,1.1,2.4,1.1,2.3,1.1,2.4,1.1,2.3,3.3,7.1v.2l1.1,2.2,2.2,4.7,2.2,4.7,1.1,2.3,1.1,2.4,1.1,2.4,2.2,4.7.3.6.9,1.8,1.1,2.4,1.1,2.3,1.1,2.3,1.1,2.4,1.1,2.3,1.1,2.4,1.1,2.3,2.2,4.7.2.5.9,1.8,1.2,2.3,1.1,2.3,1.1,2.3,1.2,2.4,1.1,2.3,1.1,2.4,1.2,2.3,1.1,2.3.8,1.6.3.7,1.2,2.3,7.1,14,2.3,4.7,1,2,1.4,2.6,2.4,4.6,2.4,4.6,2.4,4.6,2.4,4.6,2.4,4.6.5,1,1.9,3.6,2.4,4.6,2.4,4.6,2.4,4.6,2.4,4.6,2.4,4.6.7,1.4,1.7,3.2,4.9,9.2,2.5,4.6,2.4,4.6,2.4,4.6.6,1.1,1.9,3.5,2.5,4.6,4.9,9.2,4.9,9.2,4.9,9.2,4.9,9.1h0l5,9.2,5,9.2h0l3.6,3.3h4.4l2.8-3.4-.3-4.9h0l3,1.4ZM1015.8,1193.6l-2.1-2.3-3-3.4-3.8-4.3-2.3-2.5-2.4-2.6-5.4-6-6-6.8-6.6-7.4-6.7-7.5-.5-.5-7.7-8.5-8.1-9-.4-.4-8.1-8.8-8.8-9.6-.3-.3-8.8-9.4-4.6-4.9-3.1-3.3-1.6-1.6-4.8-4.9-4.8-4.9-3.7-3.8-1.1-1.1-4.9-4.8-4.9-4.8-3.3-3.2-1.6-1.5-4.9-4.6-4.9-4.6-3.8-3.5-1.1-1-4.8-4.4-4.8-4.4-4.7-4.3-.2-.2-4.4-4-4.6-4.1-4.5-4-2.2-2-2.2-1.9-4.3-3.8-4.1-3.7-4-3.5-3.8-3.4-1.8-1.7-1.8-1.6-1.8-1.6-1.7-1.6-1.7-1.5-1.6-1.5-.2-.2-1.4-1.2-1.5-1.4-1.5-1.3-1.5-1.3-1.4-1.3-1.4-1.2-1.3-1.2-1.2-1.1-1.2-1.1-1.1-1-1.1-1-1-.9-.9-.9-.9-.8-.8-.8-.8-.7-.4-.3-.3-.3-.3-.3-.3-.3-.5-.5-.2-.2-.2-.2-.2-.2-.3-.3h0c0,0,0,0,0,0,0,0,0,0,0,0h0c0,0,0,0,0,0h0c0,0,0,0,0,0h0c0,0,0,0,0,0h0v.3h0v.2h0v.4h0v.6h0l-1.9-3.2-3.3-1h0l-3.2,1.8-1,3.5h0v.9c0,0,.3.4.3.4v.3c0,0,.2.2.2.2v.2c0,0,.2.2.2.2v.2l.2.2.2.3.2.2v.2h.2l.4.5.4.6.2.3.2.3.2.3.3.3.3.3.3.4.6.8.7.8.7.9.8,1,.8,1,.9,1.1.9,1.1,1,1.2,1,1.3,1.1,1.3,1.1,1.4,1.2,1.4,1.2,1.5,1.3,1.5,1.3,1.6,1.3,1.6,1.2,1.4.2.3,1.4,1.7,1.5,1.7,1.5,1.8,1.6,1.8,1.6,1.9,1.6,1.9,3.4,3.9,3.5,4.1,3.6,4.2,3.7,4.3,1.9,2.2,1.9,2.2,4,4.5,4.1,4.6,4,4.5.2.2,4.3,4.7,4.4,4.8,4.4,4.9,1,1.1,3.5,3.8,4.6,4.9,4.6,4.9,1.5,1.6,3.2,3.3,4.7,4.9,4.8,4.9,1.1,1.1,3.8,3.7,4.9,4.8,4.9,4.8,1.6,1.6,3.3,3.1,4.9,4.6,9.4,8.8.3.3,9.6,8.8,8.9,8.1.4.4,9,8,8.5,7.7.5.5,7.6,6.6,7.5,6.6,6.8,6,6,5.3,2.7,2.3,2.6,2.2,4.4,3.8,3.4,2.9,2.4,2h0l4.3,1.7,4-1.6h0l1.5-4.1-1.7-4.3h.3ZM808.3,923.2l-2.2,2.3h0,.8c0,0,.2-.2.2-.2h.2c0,0,.2-.3.2-.3h0l.2-.2h0l.3-.3h0l.3-.3h0l.2-.4h0l.2-.5h0c0,0-.3,0-.3,0ZM1083.7,1106.8l2.4,4.1-.9,4.3h0l-3.8,2.1-4.7-1.1h0l-12-7.7-3.5-2.3-2.5-1.6-6-3.9-6-3.9-6-3.9-3-1.9-6-3.9-3-1.9-3-1.9-2.2-1.4-.8-.5-3-2-17.9-11.7-1.1-.7-1.8-1.2-3-2-3-1.9-3-2-3-1.9-3-2-3-1.9-3-1.9-.7-.4-5.2-3.5-3-2-3-2-3-2-3-2-3-2-2.1-1.4-.9-.6-2.9-2-2.9-2-2.9-2-2.9-2-5.9-4-.8-.5-2.1-1.5-5.8-4.1-2.9-2-5.8-4.1-1.1-.8-1.8-1.3-2.9-2.1-2.9-2.1-5.8-4.2-2.9-2.1-2.4-1.7-.5-.4-2.9-2.1-2.9-2.1-5.7-4.2-1.8-1.3-1.9-1.3-3.1-2.3-.6-.5-3.7-2.7-3.7-2.7-7.4-5.5-3.2-2.3-.5-.4-3.7-2.8-3.7-2.8-3.7-2.8-1.8-1.4-3.7-2.8-1.8-1.4-1.8-1.4-1.8-1.4-1.8-1.4-5.5-4.2-1.8-1.4-1.8-1.4-.7-.5-.6-.5-1.3-1-5-4-2.5-2-3.8-3-1.3-1-2.5-2-1.3-1-1.3-1h0,0,.2c0,0,0,0,0,0h.2,0,0,0,0,0,0-.8c0,0,0,0,0,0h-.5c0,0,0-.2,0-.2h-.3c0,0-.3-.2-.3-.2h-.4c0,0-.3-.3-.3-.3l-.8-.3h-.4c0,0-.8-.4-.8-.4h-.4c0,0-.4-.3-.4-.3l-.6-.2-.4-.2h-.2l-.2-.2h-.2c0,0-.3-.2-.3-.2h-.2c0,0,0-.2,0-.2l-.3-.2-.2-.2h-.2c0,0-.2-.3-.2-.3l-.2-.2-.2-.2-.2-.3-.2-.3-.2-.4-.2-.5-.2-.5v-.6c0,0-.2-.6-.2-.6v-1.2c0,0,.3-.6.3-.6l.2-.5.3-.5.3-.4.3-.3.3-.3.3-.2.2-.2.2-.2h.2c0,0,.2-.2.2-.2h.2l.2-.2h.2l.2-.2h3.7l.9,1h.5c0,0,.3,0,.3,0h.4c0,0,.8.3.8.3h.4l.4.2h.4l.4.2h.2l.5.2h.4c0,0,.2,0,.2,0l.2.2h.2l.5.3h.2c0,0,.3.2.3.2h.3c0,0,.3.3.3.3l.3.2.2.2,1.4.8,1.4.8,1.4.8,1.4.8,1.4.8,1.4.8,5.6,3.3,2.8,1.6,2.8,1.6,1.4.8.7.4.7.4,2,1.2,2,1.2,2,1.2,2,1.2,3.9,2.3,6,3.5,2,1.2,2,1.2,2,1.1,4,2.3,4,2.3,4,2.3.6.3,3.4,2,7.9,4.7,4,2.3,4,2.4.7.4,3.3,2,2,1.2,2,1.2,3.1,1.9,3,1.9,3.1,1.9,3,1.9.5.3,2.5,1.6,6,3.8,9,5.8,1.8,1.2,1.2.8,3,2,3,2,5.9,4,3,2,2.2,1.5.8.5,2.9,2.1,2.9,2.1,2.9,2.1,2.9,2.1,2.9,2.1,2.9,2.1.8.6,2,1.5,5.7,4.3,2.8,2.1,2.9,2.1,2.8,2.2,2.9,2.1,2.2,1.7.7.5,2.8,2.2,2.8,2.2,8.4,6.6,2.8,2.2,2.8,2.2,1.7,1.4,1.1.9,2.8,2.2,5.6,4.4,2.8,2.2,2.8,2.2,2.8,2.2,2.8,2.2.8.6,2,1.6,2.8,2.2,2.8,2.3,5.5,4.5,2.8,2.3,5.5,4.5,5.5,4.5,5.5,4.5,2.3,1.9,3.2,2.7,5.5,4.6,5.5,4.6h0l.7-.5ZM888.4,900.8h0-.2.2-.2,0-.2,0-.2,0-.2,0-.6,1.4-.5ZM884.1,897.3h0v-.3h0v-.2h0v-.2h0v-.2h0v-.2h0v-.2h0v-.3h0l-.2-.3h0l-.2-.3h0l-.2-.3h0l-.2-.2,1.1,2.8h0c0,0,0,0,0,0ZM1196.4,980.9l.5,4.3h0l-2.9,3.3-4.7.5h0l-3.5-.9-3.5-.9-3.5-.9-3.5-.9-3.4-.9h0l-3.5-.9-3.5-.9-6.9-1.8-6.9-1.8-3.5-.9-10.4-2.7-3.5-.9-3.5-.9h0l-3.4-.9-6.9-1.8-3.5-.9-3.5-.9-3.5-.9-3.5-.9-1.4-.4-2.1-.6-3.5-.9-3.5-.9-3.5-.9-3.5-.9-3.5-.9-3.5-.9-3.2-.8h-.2l-3.4-1-6.9-1.9-6.9-1.9-3.5-.9-3.5-.9h-.4l-3-1-6.9-2-3.4-1-3.5-1-3.4-1-1.4-.4-2-.6-3.4-1.1-6.8-2.1-3.4-1.1-3.4-1.1-1-.3-2.4-.8-3.4-1.1-3.4-1.1-3.4-1.1-3.4-1.1-3.4-1.1-1.6-.5-1.8-.6-17-5.7-2.6-.9-.8-.3-2.5-.9-2.5-.9-2.5-.9-2.5-.9-10.1-3.5h-.2l-2.3-.9-2.5-.9-1.3-.5-2.5-.9-1.3-.5-1.3-.4-3.8-1.3-1.3-.4-1.3-.4-3.8-1.3-1.3-.4-3.8-1.2-1.3-.4-2.5-.8-1.3-.4-1.3-.4-1.3-.4-1.3-.4-1.3-.4-1.3-.4-1.3-.4h-.2l-1.1-.4-1.3-.4-2.5-.7-1.3-.3-1.3-.3-1.3-.3-.6-.2-1.3-.3-.6-.2-.6-.2-.6-.2-.6-.2-.6-.2-.6-.2-.6-.2-.6-.2-.6-.2-.6-.2-.6-.2-.6-.2h-.6c0,0-.6-.3-.6-.3l-.6-.2h-.6c0,0-.6-.3-.6-.3h-.5c0,0-.2,0-.2,0h-.3c0,0-.2.2-.2.2h-.4c0,0-.4.3-.4.3l-.8.3-.4.2-.4.2-.4.2h-.2l-.2.2h-.2l-.2.2-.5.2-.6.2h-.3l-.3.2h-2.9c0,0-.2,0-.2,0h-.5c0,0-.3-.3-.3-.3l-.3-.2-.3-.2-.3-.2-.3-.3-.3-.3-.3-.3-.2-.3-.2-.3-.2-.3v-.3c0,0-.3-.3-.3-.3v-.3l-.2-.3v-.8c0,0,0-.7,0-.7v-.2l1.7-3.3,3.4-1.2h0l.6.3h.2c0,0,.3-.3.3-.3l.4-.2.4-.2.4-.2.4-.2h.2c0,0,.2-.2.2-.2h.2c0,0,.2-.2.2-.2h.2c0,0,.3-.2.3-.2l.5-.2.6-.2h.3c0,0,.3-.2.3-.2h.3l.3-.2h.5c0,0,.4,0,.4,0h3.7c0,0,.7,0,.7,0l1.3.2h1.4c0,0,.7,0,.7,0l1.3.2h1.4c0,0,.7,0,.7,0h.7c0,0,.7,0,.7,0l1.3.2h.7l.7.2h.7l1.3.2,1.4.2,1.3.2,1.4.2,1.3.2,1.4.2,1.2.2h.2l2.7.5,2.7.5,1.3.2,1.4.2,1.3.3,2.7.5,2.7.5,1.3.3,1.3.3,1.3.3,1.3.3,4,.8,1.3.3,1.3.3,2.7.6,1.3.3,1.3.3,1.3.3,1.3.3,1.3.3,2.6.6,2.4.5h.2l2.6.7,2.6.6,5.2,1.2,2.6.6,2.6.6,2.6.6,3.4.8,2.7.7,3.5.9,3.5.8,3.5.9,3.5.9,3.5.9,3.5.9,3.5.9,3.5.9,3.5.9,3.5.9,3.5.9,2.5.6,1,.3,3.5,1,3.5,1,6.9,2,3.4,1,2.1.6,1.4.4,6.9,2.1,3.4,1.1,3.4,1.1,3.4,1.1,3,.9h.4c0,0,3.4,1.3,3.4,1.3l3.4,1.1,3.4,1.1,3.4,1.2,3.4,1.2,3.4,1.1,3.4,1.2h.2l3.2,1.2,3.4,1.2,3.4,1.2,3.4,1.2,3.4,1.2,3.4,1.2,3.4,1.2,2.1.7,1.3.5,3.4,1.2,10.1,3.7,3.4,1.2,3.4,1.2,3.3,1.2h0l10.1,3.9,3.4,1.3,3.4,1.3,6.7,2.6,3.4,1.3,3.4,1.3,3.3,1.3,3.4,1.3,3.3,1.3h0l3.2,1.3,3.4,1.3,3.3,1.3,3.4,1.3,3.3,1.3h0l3.5,3.1.6-.8ZM907.8,804.6l2.7,1.6,1.1,3.5h0v-.4h0v-.4h0v-.5h0l-.2-.6h0l-.3-.8-.5-.8-.7-.7-.8-.5-.8-.3h-.5ZM910.2,813.1h0,0,0-.4c0,0-.2.2-.2.2h.7l-.2-.2ZM909.8,813.3h0ZM904,805.4l3.1-.9h-1.2c0,0-.5,0-.5,0h0c0,0-.3,0-.3,0h0c0,0-.2,0-.2,0,0,0,0,0,0,0h-.4c0,0,0,0,0,0h0l.2-.2h.2c0,0,.2-.3.2-.3l.4-.2h.2c0,0,.3-.2.3-.2h.3c0,0,.4-.2.4-.2h.5c0,0,.4-.2.4-.2h.8c0,0,.7-.2.7-.2l1.4-.2,2.8-.4,1.4-.2,2.8-.3,2.8-.3h1.4c0,0,1.4-.3,1.4-.3l2.8-.3h1.4c0,0,1.4-.3,1.4-.3h1.4c0,0,1.4-.2,1.4-.2h1.4c0,0,1.2-.2,1.2-.2h1.6c0,0,2.9-.3,2.9-.3h1.4l1.4-.2h1.4l1.4-.2h2.8c0,0,1.4,0,1.4,0h1.4c0,0,1.4,0,1.4,0l2.8-.2h2.8c0,0,1.4,0,1.4,0l8.5-.4h2.8l8.5-.2h5.6c0,0,2.8,0,2.8,0h1.9c0,0,.9,0,.9,0h14.2c0,0,2.9,0,2.9,0h23.3l8.7.2h5.8c0,0,.4,0,.4,0h2.5c0,0,5.8.4,5.8.4l2.9.2,5.8.3h2.3c0,0,3.5.4,3.5.4l11.6.9,5.8.5h1l4.8.5,5.8.5,5.8.6,5.8.6h.9l4.9.6,11.6,1.2,5.9.6,5.6.7,11.6,1.3,11.6,1.3,5.8.7,2.2.2,3.6.4,5.8.7,5.8.7h0l4.3,2.1,1.7,4h0l-2,3.9-4.5,1.7h0l-5.8.2-5.8.2h-3.6c0,0-2.2,0-2.2,0l-17.4.3-11.6.2h-5.7c0,0-6,.2-6,.2h-11.6c0,0-4.9,0-4.9,0h-35.7c0,0-5.8,0-5.8,0h-5.8l-2.9-.2-11.6-.3h-2.9l-2.9-.2-2.9-.2-2.9-.2h-2.9c0,0-5.8-.4-5.8-.4h0l-2.7-.2-5.8-.4-2.9-.2-2.9-.2-2.9-.2h-1.6c0,0-1.3-.2-1.3-.2l-2.9-.2-2.9-.2-2.9-.2h-1.4c0,0-1.4-.2-1.4-.2h-1.4c0,0-1.4-.2-1.4-.2h-1.4c0,0-1.4-.2-1.4-.2h-.9l-2-.3-2.8-.3-2.8-.3-2.8-.3-2.8-.3-5.6-.6h-.2l-2.6-.3-2.8-.3-2.8-.3-2.8-.3h-1.4c0,0-1.4-.3-1.4-.3l-2.8-.3h-1.4c0,0-1.4-.3-1.4-.3h-1.4c0,0-1.4-.3-1.4-.3l-2.8-.3h-1.4c0,0-1.4-.3-1.4-.3h-1.4c0,0-4.2-.5-4.2-.5h-1.4c0,0-.2,0-.2,0h-1.2c0,0-2.8-.3-2.8-.3l-4.2-.3h-1.4l-1.4-.2h-1.4l-1.4-.2h-1.4l-1.4-.2h-2.8c0,0-1.4,0-1.4,0h-1.4c0,0-2.8,0-2.8,0h-.7c0,0,0,0,0,0l-.3.2-.5.2-.7.2h-1.7l-.8-.2-.8-.4-.8-.6-.6-.8-.4-.8-.2-.7v-.6c0,0-.2-.5-.2-.5v-.8l1.8-3.2,1.2-.3ZM957.1,749.5h0v-.3h0c0,0,0,.6,0,.6h0v.2h0c0,0,0,.1,0,.1h0c0,0,0,0,0,0h0c0,0,0,0,0,0h0c0,0,0,0,0,0h0c0,0,0,0,0,0h0c0,0,0,0,0,0h0c0,0,0,0,0,0h0c0,0,0,0,0,0h0c0,0,0,0,0,0v-.2h0v-.2h0v-.2h0ZM957.1,749.1h0ZM1228,651.6h0l-.4,4.3-3.5,3.2h0l-5.3,2.3-5.3,2.3-4,1.7-1.3.6-5.3,2.2-5.3,2.2-5.3,2.2-5.3,2.2-5.3,2.2-5.3,2.2-2.4,1-3,1.2-5.4,2.2-5.3,2.2-5.3,2.2-2.8,1.1-2.6,1-10.7,4.2-5.4,2.1-3.8,1.5-1.6.6-10.8,4.1-9.1,3.4-1.7.6-10.9,3.8-6.4,2.3-4.5,1.5-11,3.5-2.4.8-18.9,5.7-.8.2-8.3,2.4-8.3,2.4-1.9.6-2.2.6-4.2,1.2-4.2,1.1-4.2,1.2-4.2,1.2h-.3l-3.9,1.1-4.2,1.1-2.1.6-2.1.6-2.1.6-2.1.6-2.1.5-2.1.6-2.1.6-2.1.6-2.1.6-2.1.6h-.6c0,0-.2,0-.2,0l-.4.2h-.2l-.2.2h-.2l-.5.3h-.3l-.5.3h-.3c0,0-.3.2-.3.2h-.3c0,0-.3.2-.3.2l-.6.3-.6.3h-.2l-.5.3-.6.3-.7.3-.7.3-.7.3-.7.3-2.1,1-1.4.7-1.4.7-1.4.7-1.4.7-.7.3-.7.3-1.4.6-.7.3-.7.3-.7.3-.7.3-.6.3h-.3c0,0-.3.3-.3.3h-.3c0,0-.3.2-.3.2h-.3c0,0-.3.3-.3.3h-.3c0,0-.3.2-.3.2h-.3c0,0-.9.4-.9.4h-.3l-.3.2-.6.2-1.2.3h-.6c0,0-.6.2-.6.2h-3.1c0,0-.3,0-.3,0l-.3-.2h-.3c0,0-.3-.3-.3-.3l-.3-.2-.3-.2-.6-.4-.3-.2-.2-.3-.2-.3-.2-.3-.2-.3-.2-.3-.2-.3v-.3c0,0-.2-.3-.2-.3v-.3l-.2-.3v-2.7c0,0,0-.2,0-.2v-.4c0,0,0-.2,0-.2v-.2c0,0,0-.2,0-.2l.2-.3v-.4c0,0,0-.2,0-.2l.2-.3.2-.3,2.7-2.5h3.5l.8.8h0l.2-.2.2-.2h.2c0,0,.5-.4.5-.4l.5-.3.5-.3.6-.3.6-.4.6-.4.6-.4.6-.4,1.2-.9,1.3-.9,1.3-.9,1.3-.9,1.3-.9,1.3-.9.7-.5.7-.5.7-.4.7-.5.7-.4.7-.4.5-.3h.2c0,0,.6-.5.6-.5l.6-.4.3-.2.3-.2,1.3-.7.3-.2.3-.2,1-.5.3-.2,1.3-.6h.3c0,0,.3-.3.3-.3l2-.9,2-.9,2-.9,2-.9,2-.9,2-.9,2-.9,2-.9,2-.9,2-.9,4-1.7,3.7-1.6h.3c0,0,4-1.8,4-1.8l4-1.7,4-1.6,4-1.6,2.1-.9,1.9-.8,8.1-3.2,8-3.2.7-.3,18.5-7,2.4-.8,10.8-3.9,4.5-1.6,6.4-2.1,11-3.6,1.7-.6,9.3-2.8,11-3.3,1.7-.5,3.9-1.1,5.5-1.6,5.5-1.6,5.5-1.6,2.6-.8,2.9-.8,5.6-1.6,11.1-3.1,3.1-.9,2.4-.7,5.6-1.5,5.6-1.5,5.6-1.5,5.6-1.5,5.6-1.5,5.6-1.5,1.4-.4,4.2-1.1,5.6-1.5,5.6-1.5,4.8.3,3,3.1h0l.4.6ZM993.3,668.6v-.2h0v-.2h0v-.2h0v-.2h0v-.2h0v-.2h0v-.2h0v-.2h0c0,0,0,0,0,0h0c0,0,0,0,0,0h0c0,0,.3,2.4.3,2.4h0c0,0,0,0,0,0v-.2h0v-.2h0v-.2h0l-.3-.2ZM1293.4,458.7l-2.5,3.9h0l-3.5,2.7-3.5,2.7-7,5.4-1.9,1.5-1.6,1.2-3.5,2.7-7,5.4-3.5,2.7-3.5,2.7-3.5,2.7-7,5.4-3.5,2.7-3.5,2.7-2.1,1.6-1.4,1.1-3.5,2.7-7,5.4-3.5,2.7-3.5,2.7-3.5,2.7-1.2.9-2.3,1.8-3.5,2.7-7,5.4-3.5,2.7-3.5,2.7-3.5,2.7-.9.7-2.7,2-3.5,2.6-3.5,2.6-3.5,2.7-3.5,2.7-6.5,4.9-.6.4-7.1,5.2-7.1,5.2-5.7,4.2-1.5,1-7.3,5.1-7.3,5.1-3.6,2.5-3.7,2.5-14.7,9.9-2.4,1.6-12.4,8.2-7.4,4.9-1.5,1-5.9,3.8-7.4,4.8-7.4,4.8-.5.3-1.3.8-1.8,1.2-3.6,2.3-1.8,1.2-3.6,2.3-5.4,3.5-3.6,2.4-3.6,2.4-3.6,2.4-3.6,2.4-3.6,2.4-1.8,1.2-1.8,1.2-1.8,1.2-1.8,1.2-1.8,1.2-3.7,2.3-1.9,1.2-1.8,1.1-1.9,1.2-1.8,1.1-.9.6-.9.6h-.2c0,0-.2.2-.2.2h-.2c0,0-.2.2-.2.2h-.2c0,0-.2.2-.2.2h-.2l-.2.2-.3.2-.3.2h-.3c0,0-.3.3-.3.3l-.7.2h-.3c0,0-.3.2-.3.2h-.3c0,0-.6.3-.6.3h-.3l-.6.3-.6.2-1.2.3-.6.2-.6.2h-.5c0,0-.2,0-.2,0l-.2.2h-.4c0,0-.2,0-.2,0h-.4v.4l-2,2.9h0l-3.5.6-3-2.1h0v-.2c0,0-.4-.5-.4-.5v-.2c0,0-.2-.3-.2-.3v-.3c0,0-.2-.3-.2-.3v-.3l-.2-.6v-.9c0,0,0-1,0-1v-.9c0,0,0-.3,0-.3l.2-.3.2-.6v-.3c0,0,.3-.2.3-.2l.2-.2v-.2c0,0,.3-.2.3-.2l.2-.2.2-.2.2-.2.2-.2.3-.3.2-.2.2-.2h.2c0,0,.3-.4.3-.4h.2c0,0,.2-.2.2-.2h.2c0,0,.2-.2.2-.2l.3-.2h.2c0,0,.3-.3.3-.3l.3-.2.6-.3.3-.2.3-.2.3-.2,1.2-.6h.3c0,0,.3-.3.3-.3l.6-.2.6-.2,1.1-.5.5-.2.5-.2h.2c0,0,.5-.3.5-.3l.4-.2h.2l.2-.2h.4c0,0,0,0,0,0l.4-.2h0,.6l.8-.7.8-.7,1.7-1.3,1.7-1.4,1.7-1.4,1.7-1.4,1.7-1.4,3.3-2.8,1.7-1.4,3.3-2.8,1.7-1.4,1.7-1.4,1.7-1.4,3.3-2.8,3.3-2.8,3.3-2.8,3.3-2.8,1.7-1.4,1.7-1.4,1.7-1.4,5.1-4.1,3.4-2.8,1.7-1.4,1.2-1,.5-.4,6.9-5.5,6.9-5.5,5.5-4.3,1.4-1.1,7-5.4,11.7-9.1,2.3-1.7,14.1-10.7,3.6-2.7,3.5-2.6,14.3-10.5,1.4-1.1,5.8-4,14.5-10.1.6-.4,6.7-4.5,3.7-2.5,7.3-4.9,3.7-2.5,2.8-1.8.9-.6,3.7-2.4,3.7-2.4,3.7-2.4,3.7-2.4,7.4-4.8,2.4-1.6,1.3-.8,3.7-2.4,3.7-2.4,3.7-2.4,3.8-2.4,3.7-2.4,3.7-2.4,1.5-.9,2.3-1.4,15.1-9.4,3.8-2.3,3.8-2.3,7.5-4.7,3.8-2.3,3.8-2.3,1.7-1,2.1-1.3,7.6-4.6,3.8-2.3,3.8-2.3,4.6-.9,3.7,2.3h0l.7,4.3-1.3-.4ZM1154.3,427.4l-5.4,4.3-2.8,2.2h-.2c0,.1-2.6,2.2-2.6,2.2l-2.8,2.2-2.8,2.2-2.8,2.3-2.8,2.3-2.8,2.3-2.8,2.3-5.7,4.6-1.8,1.5-1.1.9-2.8,2.4-2.8,2.3-2.8,2.4-2.8,2.4-5.7,4.8-2.8,2.4-2.9,2.4-1.4,1.1-1.5,1.3-2.8,2.4-2.8,2.5-2.8,2.5-5.6,5-2.8,2.5-2.8,2.5-.4.4-2.3,2.1-1.4,1.3-1.4,1.3-1.4,1.3-1.4,1.3-1.4,1.3-1.4,1.3-1.4,1.3-1.4,1.3-4.1,3.9-1.3,1.3-1,.9-.4.4-4,3.9-1.3,1.3-1.3,1.3-2.6,2.6-1.3,1.3-1.3,1.3-1.3,1.3-1.3,1.3-1.3,1.3-1.3,1.3-1.3,1.3-1.3,1.3h0l-1.3,1.3-1.3,1.3-1.3,1.3-1.3,1.3-1.3,1.3-1.3,1.3-1.3,1.3-1.3,1.3-5,5.2-2.4,2.6-1.2,1.3-1.2,1.3h0l-1.2,1.3-1.2,1.3-1.2,1.3-1.2,1.3-1.2,1.3-1.2,1.3-1.2,1.3-1.2,1.3-1.1,1.3-2.3,2.6-3.4,3.9-1.1,1.3-1.1,1.3-.7.8-.4.5-1.1,1.3-2.2,2.6-1.1,1.3-1.1,1.3-2.1,2.5-1,1.3-1,1.3-1,1.3-1,1.3-1,1.3-1,1.2-1,1.3-1,1.2-1,1.3-1,1.2-1.9,2.5-1,1.2-.9,1.2-1,1.2-.9,1.2-.9,1.2-2.7,3.6-.9,1.2-1.7,2.4-.9,1.2-.9,1.2-.8,1.2-.6.8-.3.4-1.6,2.4-.8,1.2-.8,1.2-.8,1.2-.8,1.2-1.5,2.3-.4.6-.4.6-.7,1.1-.4.6-.4.6-1.4,2.3-.3.6-.3.6-.7,1.1-.3.6-.3.6-.3.6-.3.6-1,1.7-.3.5-.3.6-.3.6-.3.6-.3.5-.3.5-.3.5-.3.6-.3.5-.3.6-.6,1.1-.5,1.1-.3.5-.3.5-.6,1.1-.3.5-.3.5-.3.5-.2.5-.3.5-.2.5-.3.5-.2.5v.2l-.2.3-.2.5-.2.5-.2,3.7,2.2,2.8h0l3.5.3,2.9-2.3h0l.3-.5.3-.4.2-.3v-.2c0,0,.4-.5.4-.5l1.2-1.8.3-.5.3-.5.3-.5.3-.5.3-.5.3-.5,1.3-1.9.3-.5.3-.5.3-.5.3-.5.4-.5.3-.5.3-.5.3-.5.3-.5.4-.5.7-1,.3-.5.7-1,.4-.5.4-.5.4-.5.4-.5.4-.5.4-.5.4-.5.4-.5.4-.5.4-.5.4-.5.4-.5.4-.5.4-.5.4-.5.8-1,.8-1,2.6-3.1,1.8-2.1,1.8-2.1.3-.4.6-.7.9-1.1,1.9-2.1.9-1.1,1.9-2.1,1-1.1,1-1.1,1-1.1,2-2.2,1-1.1,1-1.1,2.1-2.2,1.1-1.1,1.1-1.1,1.1-1.1,1.1-1.1,1.1-1.1,1.1-1.1,1.1-1.1,1.1-1.1,1.1-1.1,1.1-1.1,2.3-2.3,1.2-1.1,1.2-1.1,1.2-1.2,1.2-1.1,1.2-1.1,1.2-1.2.4-.4.7-.7,1.2-1.2,2.4-2.3,1.2-1.2,1.2-1.2,1.2-1.2,1.2-1.2,1.2-1.2,1.2-1.2,1.3-1.2,1.2-1.2,1.3-1.2,1.3-1.2,1.3-1.2,1.3-1.2,1.2-1.1h0l1.3-1.3,1.3-1.2,1.3-1.2,1.3-1.2,1.3-1.2,3.9-3.6,1.3-1.2,2.6-2.4,1.3-1.2,2.7-2.4,1.3-1.2,1.3-1.2h0l1.3-1.2,1.3-1.2,1.3-1.2,1.3-1.2,1.3-1.2,1.3-1.2,1.3-1.2,1.4-1.2,2.7-2.4,1.4-1.2,2.7-2.4,1.4-1.2,1.4-1.2.4-.4.9-.9,2.7-2.5,1.4-1.2,1.4-1.2,2.8-2.5,1.4-1.2,2.8-2.5,1.4-1.2,1.4-1.2,1.4-1.2,2.3-2.1.4-.4,8.2-7.5,8.3-7.5,2.7-2.5,1.4-1.3,1.3-1.2,2.7-2.5,5.4-5,2.7-2.5,2.7-2.5,2.7-2.5,2.7-2.5,2.7-2.5,1-.9,1.7-1.5,5.3-4.9,2.6-2.4,5.3-4.9,2.6-2.4,2.6-2.4,2.6-2.4,2.4-2.2.2-.2,2.6-2.4,5.1-4.7,5-4.7,5-4.6,4.9-4.5,1.8-1.7,3-2.8,4.7-4.4,4.6-4.3,4.5-4.3,2.3-2.1,2.2-2.1,2.2-2.1,2.2-2,2.1-2,2.1-2,2.1-2,2-2,2-1.9,2-1.9,1.9-1.8h0l1.9-1.9,1.9-1.8,1.9-1.8,1.8-1.8,1.8-1.8,1.8-1.7,1.7-1.7,1.7-1.7,1.7-1.7h0l1.9-4.2-1.4-4.1h0l-4-1.8-4.3,1.4-1.8,1.5-1.8,1.5-1.9,1.5-1.9,1.5-2,1.6-2,1.6-2,1.6-2.1,1.6-2.1,1.7h0l-2.1,1.7-2.1,1.7-2.2,1.7-2.2,1.7-2.2,1.8-2.3,1.8-2.3,1.8-2.3,1.8-2.4,1.9-4.8,3.8-4.9,3.9-5,3.9-5.1,4-3.2,2.5-2,1.6-5.2,4.1-5.3,4.2-5.4,4.3,1.1-.6ZM931.4,600.5v-3.7l.3-1.1v-.4c0,0,.4-.7.4-.7l.4-1.1.4-1.1.4-1.1.8-2.1.9-2.1.3-.8v-12c0,0,0-1,0-1v-6.9c0,0-.2-2-.2-2v-6c0,0-.3-5.2-.3-5.2v-5.2c0,0-.3-5.2-.3-5.2v-5.2c0,0-.3-5.2-.3-5.2l-.3-13.1v-53.3c0,0,0-1.8,0-1.8l.2-3.6.3-5.4v-1.8l.2-1.8.2-3.6v-1.8c0,0,.2-1.7.2-1.7v-.2l.2-1.8.2-1.8.2-1.8.2-1.8.3-3.6.2-1.8.2-1.8.2-1.8.2-1.8.2-1.8.2-1.8v-1.3c0,0,.2-.5.2-.5l.5-3.6.2-1.8.2-1.8.2-1.8.2-1.8.5-3.6.5-3.6.5-3.6.3-2.3.2-1.4,1.1-7.3,1.1-7.3.6-3.6.6-3.6.6-3.6v-1c0,0,.6-2.6.6-2.6l.6-3.6.3-1.8.3-1.8.3-1.8.3-1.8.8-5.4.3-1.8.6-3.6.5-3.6.2-1v-.8c0,0,.4-1.8.4-1.8l.3-1.8.3-1.8.3-1.8.3-1.8.2-1.8.3-1.8.2-1.8.2-1.8.2-1.8.2-1.8.2-1.8.2-1.8.2-1.8.2-1.8v-.7l.2-1.1.6-5.3.4-3.6.2-1.8.2-1.8.2-1.8.2-1.8.2-1.8v-.9l.2-.9v-.9l.2-.9.2-1.7v-1.8c0,0,0-.9,0-.9v-.9c0,0,0-.9,0-.9v-.9c0,0,.3-3.5.3-3.5v-1.8c0,0,0-.9,0-.9v-.9c0,0,0-1.7,0-1.7v-.9c0,0,0-1.7,0-1.7v-.9c0,0,0-.9,0-.9v-23.6l1.5-4.3,3.8-2h0l4.1,1.4,2.2,4h0v.9c0,0,0,.9,0,.9,0,0,.2.9.2.9v.9c0,0,.2.9.2.9v.9l.2.9v.9l.2.9v.9l.3,1.8v.9l.2.9v.9l.2.9.3,3.6v1.8c0,0,0,.3,0,.3v2.4c0,0,0,.9,0,.9v.9c0,0,0,.9,0,.9v.9c0,0,0,.9,0,.9v.9c0,0,0,.9,0,.9v3.6c0,0,0,.9,0,.9l.3,6.3v34.6c0,0,0,1.9,0,1.9v1.8c0,0,0,1.9,0,1.9l-.2,1.8v1.8l-.4,5.6v1.8c0,0-.2,1.9-.2,1.9l-.2,3.7v1.9c0,0-.3,3.7-.3,3.7l-.6,7.4v1.8c0,0-.3,1.8-.3,1.8l-.2,1.9v1.8c0,0-.4,3.7-.4,3.7l-.3,3.7-.2,2.7v1l-.4,3.7-.7,7.3-.7,7.3-.7,7.3v1.4c0,0-.4,2.3-.4,2.3l-.4,3.6-.4,3.6-.4,3.6-.2,1.8-.4,3.6-.2,1.8-.2,1.8-.2,1.8v.5l-.2,1.3-.2,1.8-1.1,8.9-.2,1.8-.2,1.8-.2,1.8-.2,1.8-.2,1.7-.2,1.8h0c0,.1-.2,1.7-.2,1.7l-.2,1.7-.2,1.7-.2,1.7-.2,1.7-.2,1.7-.2,1.7-.2,1.7-.2,1.7-.5,5.1-.2,1.7v1.4c0,0-.2.3-.2.3l-.2,1.7-.2,1.7-.2,1.7-.9,10.3-.2,2.6-.2,2.6-.2,2.6v.9l-.2,1.7-.2,2.6-.2,2.6-.2,2.6-.2,2.6-.2,2.6-.2,2.6-.2,2.6-.2,2.6-.2,1.9v.7l-.6,5.2-.2,2.6-.2,2.6-.2,2.6-.5,5.2-.5,5.2-.5,5.2-.4,5.2v1.6c0,0,0-.4,0-.4l1.1-2,.6-1,.5-1,.6-1,.6-1,.6-1,1.1-2,.6-1,.6-1,.6-1,.6-1,1.7-3,.6-1,1.2-2,.6-1,.6-1,.6-1,.6-1,.6-1,.6-1,.6-1,1.2-2,1.2-2,1.2-2,2.4-3.9,1.2-1.9,1.2-2,1.2-1.9,2.4-3.9,1.2-1.9,4.9-7.7,2.4-3.8,2.4-3.8,1.2-1.9,1.2-1.9,1.2-1.9,1.1-1.7v-.2c0,0,2.5-3.7,2.5-3.7l2.3-3.7.6-.9.6-.9.6-.9.6-.9.6-.9.6-.9.6-.9.6-.9,4.5-7.5,1.4-2.3.9-1.4,2.3-3.7,2.3-3.7,6.8-11.2,2.3-3.7.5-.8,1.8-2.9,9.2-14.8,2.3-3.7,1.1-1.8,1.2-1.8,2.4-3.7,2.4-3.7,2.4-3.7,7.1-11,.5-.8,1.9-2.8,4.8-7.3,2.4-3.6,2.4-3.7,2.4-3.7,2.4-3.6,2.1-3.3.2-.4,2.4-3.6,2.4-3.6,2.4-3.6,2.4-3.7,2.4-3.6,2.4-3.6,2.4-3.7,2.3-3.5v-.2c0,0,4.9-7.3,4.9-7.3l2.4-3.7,2.4-3.6,4.8-7.3,2.4-3.7,1.9-3,.4-.7,4.8-7.3,4.7-7.3,1.2-1.8,3.5-5.5,1.2-1.8,1.2-1.8,2.4-3.7,1.2-1.9,1.2-1.8,1.2-1.9,2.4-3.7,2.3-3.7,1.2-1.8,1.2-1.8.5-.7.7-1.1,1.2-1.8,1.2-1.9,1.2-1.8,1.2-1.8,5.8-9.3,1.2-1.9,3.6-2.8,4.3.4h0l2.6,3.5-.4,4.6h0l-1,2-1,2-2.9,5.9-1,2-1,2-3,5.9-.6,1.2-.4.8-1,1.9-1,2-1,1.9-1,2-2,3.9-1,2-3,5.8-2,3.9-1,1.9-2.1,3.9-1,1.9-1,1.9-2.1,3.9-2.1,3.9-2.1,3.9-2.1,3.9-.4.7-1.7,3.2-2.1,3.8-2.1,3.9-4.2,7.7-6.4,11.5v.2c0,0-2.2,3.6-2.2,3.6l-2.2,3.8-2.2,3.8-4.3,7.6-2.2,3.8-2.2,3.8-2.2,3.8-.2.4-2,3.4-2.2,3.8-2.2,3.8-2.2,3.8-2.3,3.8-2.2,3.8-2.2,3.8-1.7,2.9-.5.8-2.3,3.7-2.3,3.7-2.3,3.7-2.3,3.7-4.6,7.4-1.2,1.9-3.6,5.5-2.4,3.7-2.4,3.7-2.4,3.7-2.4,3.7-1.9,2.9-.5.8-2.5,3.6-2.4,3.6-2.5,3.6-2.4,3.6-4.9,7.3-.9,1.4-1.5,2.2-2.5,3.6-2.5,3.6-.6.9-1.3,1.8-.7.9-.6.9-.7.9-.6.9-.7.9-.7.9-.7.9-2.6,3.6-1.3,1.8v.2c0,0-1.3,1.7-1.3,1.7l-1.3,1.8-1.3,1.8-1.4,1.8-1.4,1.8-1.4,1.8-2.7,3.6-5.5,7.3-1.4,1.8-1.4,1.8-5.5,7.2-1.4,1.8-1.4,1.8-1.4,1.8-1.3,1.8-1.4,1.8-.7.9-.7.9-.7.9-.7.9-.7.9-.7.9-.7.9-.7.9-.7.9-2,2.8-.7.9-.6.9-.7.9-1.3,1.8-.6.9-1.9,2.8-.6.9-.6.9-.6.9-.6.9-.6.9-.6.9-.3.5-.3.4-.6.9-.6.9-.6.9-.6.9-.6.9-.6.9-.6.9-.6.9-.6.9-.6.9-.6,1-1.2,1.9-.6.9-.6.9-1.1,1.9-.6.9-.6.9-1.1,1.9-.6.9-.5.9-.6,1-.5.9-.3.5v.8c0,0-.3,1-.3,1l-.2,1v.7c0,0,0,.2,0,.2v.4l-.2.5v.4c0,0-.2.4-.2.4v.4c0,0-.3.4-.3.4l-.2.4v.4c0,0-.4.8-.4.8l-.3.8v.4c0,0-.2.3-.2.3v.3c0,0,0,0,0,0l.4,1.2-1.6,3.3h0l-.3.3h-.2c0,0-.4.4-.4.4h-.2c0,0-.2.3-.2.3h-.3c0,0-.3.3-.3.3h-.4c0,0-.4.2-.4.2h-1.6l-.6-.2-.6-.2-.6-.3-.6-.4-.5-.4h-1.6l-2.4-2.6"/>
  </g>
  <path id="seeds-kiwi" class="st2" d="M971.4,1075.3v-.2c0,0-.3-.2-.3-.2l-.3-.4-.3-.4-.4-.5-.4-.5-.5-.6-.4-.5-1.8-2.1-1.3-1.5-1.5-1.7-1.5-1.7h0l-1.7-1.9-1.8-1.9-.2-.2-1.7-1.7-2-2-.4-.3-1.7-1.6-1.1-1-1.1-1h0l-1-.9-1.2-.9-1.1-.9-.3-.3-.9-.5-1.2-.7-1.2-.7-.4-.2-.9-.4-1.3-.6-1.9-.9-.6-.3-1.3-.6-1.3-.5-1.1-.5h0l-1.2-.5-1.2-.5-1.2-.5-.5-.2h0l-.6-.2-.6-.2-.6-.2-1.1-.4-.5-.2-.5-.2-.5-.2-.5-.2-1-.4-.5-.2-.5-.2-.4-.2-.4-.2h-.3c0,0,0-.2,0-.2h-.4c0,0-.4-.3-.4-.3l-.7-.3h-.3c0,0-.3-.2-.3-.2h-.3c0,0-.3-.2-.3-.2h-.3c0,0,0,0,0,0h-.3c0,0-.3-.2-.3-.2h-.4c0,0,0,0,0,0h-.5v.2h0v.2h0v.2h0v.2h0v.3h0l-2.6-3-2.9-.9h0l-2.9,1.9-1,3.6h0v.8c0,0,0,.2,0,.2h0c0,0,.2.6.2.6v.2l.2.2v.2l.2.2.2.4v.2l.2.2v.2l.2.2.3.5v.2c0,0,.3.3.3.3l.2.4.2.3.2.4.2.4.2.4.2.4.2.4.2.4.3.4.2.4.5.9v.2l.3.3.6.9.3.5.3.5.3.5.3.5.4.5.3.5.7,1,.4.5.8,1,.8,1.1h0l.4.5.9,1,.9,1.1.9,1.1h0c0,0,.9,1,.9,1l1,1.1,1,1.1.5.5,1.6,1.5,1.1,1,.8.7.3.3,2.3,1.8.8.7.4.2,1.3.8,1.3.8,1.2.7h0l2.6,1.3,2.1,1,.5.2,2.6,1.1,2.2.9h.3c0,0,2.5,1.1,2.5,1.1l2.4.9h0l2.1.8,2.1.7,1.9.6,1.7.6.8.3h0l.6.2.7.2.6.2.5.2h.4c0,0,.4.2.4.2h.4l4.8.6,3.4-1.6h0l.7-3.8-1.9-4.4h0v-.4ZM867.1,1095.4h-3.3,0-.2,0-.2,0-.2.2,0,.2,0,.2,0,.2,0,3.5c0,0,.2,0,.2,0h-.5ZM913.2,1169.3l.2,5.3-2.2,3.4h-4l-4.3-3.1h0l-2.7-3.2-.7-.9-1.9-2.4-2.6-3.2-2.6-3.2-.9-1.1-1.6-2.1-2.5-3.3-.6-.8-1.9-2.6-2.4-3.3-.4-.5-1.9-2.9-2.3-3.4h0l-2-3.6-1.2-2.1-.7-1.5-1.7-3.7-.2-.4-1.3-3.4-1-2.6-.4-1.2-1.3-3.9h0v-.6l-.2-.3h0v-.4c0,0,0-.4,0-.4,0,0-.3-.4-.3-.4l-.2-.5-.2-.5-.2-.5-.2-.5-.2-.5-.2-.6-.2-.5-.2-.6v-.3c0,0-.4-.9-.4-.9l-.5-1.2-.5-1.2-.9-2.5-.5-1.2-.2-.6-.2-.6-.5-1.2-.2-.6-.4-1.2v-.4c0,0-.2-.2-.2-.2l-.2-.6-.2-.6-.2-.6-.2-.6-.2-.5-.2-.5v-.3l-.2-.3v-.5c0,0,0-.3,0-.3v-.2c0,0,0-.3,0-.3l-.2-.5v-.3l-.2-.5v-.5l-.2-.3v-.9c0,0,0-.3,0-.3v-2.8c0,0,0-.3,0-.3l.2-.3v-.3c0,0,.3-.3.3-.3l.2-.3.2-.3.2-.3.3-.3.3-.3.3-.3.4-.3.3-.2.4-.2.4-.2h.4c0,0,.4-.2.4-.2h.7c0,0,.3-.2.3-.2h1.8c0,0,.2,0,.2,0l.3.2h.3c0,0,.3.3.3.3h.3c0,0,.3.3.3.3l.2.2.2.2h0l.2.2.2.2h0l2.1,3.2v1l.2.2h0c0,0,0,.3,0,.3l.3.3.3.3.3.3.7.7.4.4.8.8.4.4.4.4,1.3,1.3.5.4.9.9.9.9.9.9.9.9.9.9.7.7.2.2.4.5.9,1,.4.5.4.5.8.9.4.5.4.5.4.4.4.5h0c0,0,.3.5.3.5l.3.4.2.3.2.2,2.4,3.4.8,1,1.5,2.3,2,3,.2.4,2,3.5.8,1.4,1,2.2,1.7,3.7h0l1.5,3.8,1.3,3.2.2.6,1.4,3.9,1.1,3,.3.9,1.3,3.9.8,2.5.4,1.4,2.4,7.9.9,2.9.3,1.1,1.1,4h.2ZM825.1,1218.1v-2.1c0,0,0-.7,0-.7l-.2-1.4v-1.4c0,0-.2-1.4-.2-1.4v-1.4c0,0-.2-1.4-.2-1.4l-.2-2.8v-1.3c0,0-.2,0-.2,0l-.2-1.4-.2-1.4-.2-1.4-.2-1.4-.2-1.4h0l-.2-1.4-.2-1.4-.2-1.4-.2-1.4-.2-1.4v-.4l-.3-1-.6-2.7-.3-1.4-.3-1.4v-.4l-.4-.9-.4-1.3-.4-1.3-.4-1.3-.3-.9-.2-.4-.5-1.3-1.1-2.5-.4-1.1v-.2c0,0-.7-1.2-.7-1.2l-.6-1.2-.6-1.2-.6-1.2v-.2c0,0-.7-1-.7-1l-2.1-3.6-.4-.7-.3-.5-.7-1.2-1.5-2.3-.8-1.2-.8-1.1-1.6-2.3-1.5-2.3-1.6-2.3-1-1.5-.5-.7-1.6-2.2-1.6-2.2-1.4-1.9-.2-.2h0l-3.1-2.4-3.1-.3h0l-2.1,2.4-.6,3.9h0v.3l.3,2.4.3,2.7.3,2.7v.9c0,0,.4,1.8.4,1.8l.4,2.7.4,2.7.4,2.7.2,1.3.2,1.4.5,2.7.2,1.3v.5l.3.8.3,1.3.3,1.3.3,1.3.2,1.1v.2l.4,1.3.3,1.3.3,1.3.3,1.3v.2l.4,1.1.4,1.3.4,1.3.4,1.3v.4c0,0,.5.9.5.9l.5,1.2.5,1.3.5,1.2.3.9.2.4.6,1.2.6,1.2.6,1.2.6,1.2.4.9.2.4.6,1.2.6,1.2.6,1.2.6,1.2.6,1.2h0l.7,1.2.6,1.2.7,1.2.6,1.2.6,1.2h0c0,0,.6,1.2.6,1.2l2,3.6.7,1.2.7,1.2,1.3,2.4.3.6.3.6.7,1.2,1.3,2.4h0l3.4,3.6,3.9.8h0l2.9-2.7,1.1-4.8h0v-2.8c0,0-.4-.3-.4-.3ZM706.3,1190.6l-2.8,1.4-3.8-.5h0l.8.5h0l1,.4,1.1.2h1.1c0,0,.9-.4.9-.4h0l.7-.4.5-.4h0l.5-.5h0l.2-.2h-.2ZM710.3,1223.8v7.1l-.2,2.1v2.1c0,0-.2,1.6-.2,1.6v.5l-.7,4.1-.3,2.1-.4,2.1-.9,4.1-.3,1.4-.2.7-.5,2-.5,2-.6,2-.3,1.1-.3.9-.6,2-.6,2-.6,2-.2.6-.5,1.4-.7,2-.7,2-1.3,4-1,2.9-.4,1.1-1.4,4h0l-2.9,4.4-3.7,1.5h0l-3.2-2.4-1.7-5h0l-.3-4.2v-1.1l-.3-3.1-.2-4.2v-2.1c0,0-.3-2.1-.3-2.1v-2.1c0,0,0-2.1,0-2.1l-.2-2.1v-3.1c0,0,0-1.1,0-1.1v-14.6c0,0,.3-2.1.3-2.1l.2-2v-2c0,0,.2-.5.2-.5l.2-1.6.3-2,.3-2v-.5l.4-1.5.4-2,.4-2,.2-.8.8-3.2.5-2,.3-1.2.3-1,.5-1.7.6-2.1.5-1.6.2-.7.4-1.2.4-1.3.4-1.3.8-2.6.4-1.3.4-1.3.4-1.3.4-1.1v-.2l.5-1.2.4-1.2.4-1.1.2-.5.2-.5.4-1,.2-.5.2-.5.2-.4.2-.4.2-.4.2-.4.3-.7v-.3c0,0,.2-.2.2-.2v-.4c0,0,0-.2,0-.2l.2-.2v-.2c0,0,.3-.3.3-.3l.2-.4.3-.5.5-.6.5-.4.6-.4.8-.3,1-.2h1.8l.5.2.9.4.4.3h0l1.8,3.2-.9,3.4h0c0,0,0,0,0,0l.2-.4h0v-.2h0v-.2h0c0,0,0,0,0,0v.4h0v3.4c0,0,0,1,0,1,0,0,.3,1.1.3,1.1l.2,1.2.2,1.2v1.3c0,0,.4,2.6.4,2.6v1.3c0,0,.4,2.7.4,2.7l.2,1.3v1.3c0,0,.3,1.3.3,1.3v.7l.2,1.7.2,2.1.2,1.8v1.1l.2,1.3v2.1c0,0,.2,2.1.2,2.1v1.3h0ZM600,1208.3h0l-3.8-4.3.6,2.9,2.3,1.3h.9ZM605.6,1217.1v3.4l-.3,2.1h0l-.2,1-.3,1v.2l-.9,1.7-.2.5-.3.5-1.3,1.8h0c0,0-1.4,1.8-1.4,1.8l-.7.8-.9.9-1.4,1.4-.3.3-3.6,3.4h0c0,0-.8.8-.8.8l-1,.8-7.8,3.9-3.1-8.1-.2-1.2-.2-1v-.2l-.3-2.4v-1.2c0,0-.3-1.2-.3-1.2v-.4l-.2-2v-4.8l.2-2.3v-.6l.2-.5.3-1.1.3-.9v-.2l.6-1,.5-1h0l.7-1,.7-.9.2-.3.6-.6.4-.5.4-.4.4-.5h0c0,0,.3-.4.3-.4l1.4-1.3.4-.4h0l.5-.4.5-.4.5-.4,1.6-1.2.5-.4.5-.4.3-.2.3-.2,1.1-.7.6-.4.4-.3.6-.5.3-.3h.2c0,0,.2-.3.2-.3h.2c0,0,.2-.3.2-.3h.2c0,0,0-.2,0-.2h.2c0,0,.3-.3.3-.3l.2-.2h.2c0,0,0-.2,0-.2l-.5.5-1,1.7v.5c0,0,1.4-2.4,1.4-2.4l3.5-1.3h1c0,0,.6.3.6.3l.6.3.6.4.5.4.5.6.4.6.3.7.2.7v1.5l-.2.7-.2.6-.3.6-.4.5-.2.3-.2.2h.5c0,0,0,0,0,0h0c0,0,0,0,0,0h0c0,0,0,0,0,0h0c0,0,0,0,0,0h0c0,0,0,0,0,0h0c0,0,0,0,0,0v.2h0v.2h0v.7l.2.6v.9c0,0,0,.3,0,.3v1.8c0,0,0,.6,0,.6v.6c0,0,0,.6,0,.6v.6c0,0,0,.6,0,.6h0v2.3h.5ZM516.8,1131.2h-.6c0,0-3.8,1.2-3.8,1.2h-.6c0,0,.2,0,.2,0h0l1.3.2h1.2c0,0,.8-.4.8-.4h0l.5-.2h0l.4-.2h0l.3-.2h.2c0,0,0-.2,0-.2h0v-.2ZM518.9,1126.7v3c0,0,0,.3,0,.3v.3c0,0,0,.3,0,.3v.3c0,0,0,.3,0,.3v.9c0,0,0,.3,0,.3l-.2.6v.7c0,0-.2.7-.2.7v.7c0,0-.3.7-.3.7h0l-.2.8-.2.7-.2.7-.2.7-.2.7-.3,1.3-.3,1.1-.2.9-.2.9-.2.8h0l-.2.8-.2.8-.3.8-.5,1.6-.2.5v.3c0,0-.4.8-.4.8l-.3.8-.3.8-.3.8-.3.8v.2l-.3.5-.3.8-.3.7-.3.8-.4.7-.3.6h0c0,0-.4.8-.4.8l-.4.7-.8,1.4-.5.8-.4.6-2,2.5-.4.5-.7.7-1.1,1.2-1.1,1.2-.7.7-.4.4-3.6,3.3h0l-1.2,1.1-1.2,1.1-1.3,1.1-.4.3-.9.7-2.6,2-1.3,1-2.3,1.8-.3.2-2.7,1.9h0l-5,2.3-3.8-.3h0l-1.4-3.5.8-5.4,1.1-3.1v-.4c.1,0,1.1-2.7,1.1-2.7l.6-1.5.6-1.5.9-2.5.2-.5.6-1.5,1.2-2.9h0l.6-1.5.6-1.4.6-1.4.2-.6.4-.9.7-1.4.7-1.4.4-.8.3-.5.8-1.3.8-1.3.4-.6.5-.7,1-1.2.9-1.2h0c0,0,.4-.6.4-.6l.5-.6.5-.6,1-1.1.4-.4h.1c0,0,.6-.7.6-.7l.6-.6.6-.5,1.3-1.3.3-.3.6-.5.6-.5,1.2-1.1.6-.5h0l.6-.5.7-.5.7-.6.8-.7.9-.8,1-.9.5-.5.5-.5.5-.5h0l.5-.4.5-.4.5-.4.4-.4.4-.4.2-.2.3-.3h.1c0,0,.2-.2.2-.2h.3c0,0,0,0,0,0h0c0,0,0,0,0,0h0v.2h0v.2h0v.3h0v.4h0v.6h0v.7c.1,0,.7-3.5.7-3.5v-.3h.1l.2-.3.2-.3v-.2c.1,0,.2-.2.2-.2v-.2c.1,0,.5-.3.5-.3l.3-.2.3-.2.5-.3.7-.3h.4l.6-.2h1.2l.6.2h.5c0,0,.9.6.9.6l.8.6.3.4.4.5.3.6h0l.2.6.2.6v.4h0ZM478.1,1019.9h0l3.2-.5,3.2-.4,3.2-.5,3.2-.5h.8c0,0,2.4-.5,2.4-.5l3.2-.5h0l4.6-2.1,2-3.5h0l-1.8-3.7-4.5-2.4h0l-3.2-.8-2.4-.6-.8-.2-9.5-2.1-3.2-.7h0l-3.2-.6-3.2-.6-1.9-.4-4.5-.8-3.9-.7-2.4-.3-5.6-.8h-.7l-6.3-.6h-6.6l-3,.2-3.2.2h-.8l-2.4.3-3.2.3-1.5.2-1.8.2-3.2.4-2.1.3-1.1.2-3.2.5-3.2.6-3.2.5-2.4.4-.8.2-4.8,1-1.6.3-1.6.3-1.2.2h-.4l-3.4,1.9-1.5,2.9h0l1.3,3,3.3,1.9h.3c0,0,1.2.4,1.2.4l6.3,1.6,1.6.4.8.2,2.3.5,6.3,1.5,3.1.7,1.1.3,2.1.4,3.2.6,1.7.3,1.4.3,3.2.6,2.4.4h.8l3.2.5,3,.4h.2l6.3.6h7.1l5.7-.3h2.4c0,0,4-.5,4-.5l4.5-.4,1.9-.2,3.2-.4,3.2-.4.4.3ZM525.1,884.6h0l-1.2-.4-.6-.2-.6-.2-.6-.2-1.3-.5-.7-.2-.5-.2h0l-.7-.3-1.4-.5-1.4-.5-1.4-.5-1.5-.6-1.5-.6-1.5-.6-1.6-.6-1.6-.6-.8-.3-.8-.3-3.3-1.2-1.7-.6-1.7-.6-.9-.3-.9-.3-1.8-.6-1.8-.6-1.8-.6-1.8-.6-.7-.2h-.2l-.9-.3-.9-.2-.9-.3-.9-.2-3.8-1-.8-.2h-.1l-1.9-.4-1-.2-1-.2-1-.2-1-.2-1-.2h-.7c0,0-.2-.2-.2-.2h-1c0,0-1-.2-1-.2l-2-.2-3-.2h-11.9c0,0-1,0-1,0h-1c0,0-1,0-1,0l-1,.2h-1l-1,.2h-1c0,0-.5,0-.5,0h-.5c0,0-.9.3-.9.3h-1c0,0-1,.3-1,.3h-.5l-.5.2h-.8c0,0-.2,0-.2,0l-.5.2h-.5l-.5.2h-.5c0,0-1.4.4-1.4.4h-.5c0,0-.4.2-.4.2h-.5c0,0-.5.2-.5.2l-1.8.5h-.4c0,0-.4.3-.4.3h-.4c0,0-.4.3-.4.3l-.9.3h-.4c0,0-.4.3-.4.3h-.4c0,0-.4.3-.4.3h-.4c0,0-.4.3-.4.3l-.4.2-.4.2-.8.3-.4.2-.4.2h-.2l-.2.2-.4.2-1.6.7-.4.2-.4.2-.4.2-.4.2-.4.2-.4.2-.4.2-.4.2-.4.2-.4.2-.3.2-.4.2-.3.2-.4.2-.3.2-.4.2-1,.7-.3.2-.3.2-.6.5-.3.2h0l-.3.3-2.1,3.2v3.3h.2l2.6,1.9h4.8c0,0,.9-.3.9-.3h.6c0,0,.3,0,.3,0h.6c0,0,.3,0,.3,0h10.3l2.2.2h3.2c0,0,.4,0,.4,0h.4c0,0,.4,0,.4,0l.8.2h.8c0,0,.2,0,.2,0h1c0,0,1.6.3,1.6.3h.8c0,0,.4,0,.4,0h.4c0,0,.4,0,.4,0l.4.2h.4l.4.2h.4l.4.2h.4l.8.2h.8c0,0,.8.3.8.3l.8.2,1.7.3.9.2.8.2h0l.9.2.9.2.9.2,1.7.3.9.2.9.2.7.2h.1l.9.2.9.2h.9c0,0,.9.3.9.3l.9.2.9.2.9.2h.9c0,0,.9,0,.9,0l.9.2,2.8.3h.9c0,0,.9.2.9.2h2.7c0,0,.9,0,.9,0h.9c0,0,.9,0,.9,0l.9.2,1.8.2h2.8c0,0,3.7.3,3.7.3h1.8c0,0,.9.2.9.2h2.7c0,0,1.8,0,1.8,0l3.5.2h22l4.4-1.6,2.2-3.4h0l-1.3-3.8-3.9-2.7h.2ZM491.1,767h0v-.2h0v-.3h0v-.2h0v-.2h0v-.2h0v-.2c-.1,0,0,0,0,0v-.2c-.1,0,0,0,0,0v-.2c-.1,0,0,0,0,0v-.2c-.1,0,0,0,0,0v-.2c-.1,0,0,0,0,0v-.2c-.1,0,0,0,0,0v-.2c-.1,0,0,0,0,0h-.2c0,0-.2-.3-.2-.3h-.4c0,0-.2,0-.2,0h-1.7l2.2,3h0v-.2h.5ZM488.9,764h0ZM488.9,764h0ZM488.9,764h-.1.1ZM580.7,811.8l-1.5-.4-1.3-.3h-.2l-1.5-.4-1.5-.4-1.5-.4-1.5-.4-6.1-1.6-1.9-.5-1.2-.3-3-.9-4.4-1.3-1.6-.5-3-.9-3-.9-1.1-.3-1.8-.6-1.5-.5-2.9-1-1.5-.5h-.4c0,0-1-.6-1-.6l-1.4-.6-1.4-.6-1.4-.6-1.4-.6h-.2l-1.2-.6-1.4-.7-2.7-1.3-.9-.4-.4-.2-1.3-.7-1.3-.7-1.3-.7-1.3-.7-.6-.3-.7-.4-1.3-.8-1.3-.8-1.3-.7-1.3-.8-.4-.2-.9-.5-1.3-.8-1.3-.8-1.3-.8-.7-.4-.7-.4h-.2c0,0-.5-.4-.5-.4l-.6-.4-.7-.4-.7-.4-.6-.4-.7-.4-.7-.4-3.3-1.9-.7-.4-.7-.4-.7-.4-.7-.4-.7-.4-.7-.4h-.2c0,0-.5-.4-.5-.4l-.7-.4h.4-.1.3-.1.2-.1.2-.1.2-.1.2-.2.2-.2.2-.2.2-.2.1-.2.1-.2.1-1.5c0,0-.3,0-.3,0h-4.2l-.6-.2h-.3l-.3-.2h-.4c0,0-.6-.3-.6-.3h-.2l-.2-.2h-.2c0,0-.2-.2-.2-.2l-.4-.2-.2-.2-.2-.2-.2-.2-.2-.2-.4-.4-.2-.2-.2-.2-.2-.2-.4-.7v-.2c-.1,0-.2-.2-.2-.2v-.2l-.2-.2v-.5c-.1,0-.2-.2-.2-.2v-.8l1.2-3.5,3-1.8h0l2.9,1h-.2.1-.2.1-.2.1-.1.1-.1.2-.1.2-.1.9l.3-.2h.3c0,0,.7-.4.7-.4h.4c0,0,.4-.2.4-.2h.4c0,0,.5-.2.5-.2h.5l.3-.2h4.2c0,0,.2,0,.2,0h.8c0,0,.6,0,.6,0h1c0,0,.8.2.8.2h.8c0,0,.8.2.8.2h.8c0,0,.8.2.8.2h.8c0,0,1.6.4,1.6.4h.8c0,0,.8.3.8.3h.8c0,0,.8.2.8.2h.8c0,0,.8.3.8.3h.8c0,0,.8.3.8.3h.6c0,0,.2.2.2.2l.8.2,3.9.8,1.5.3,1.1.2h.5c0,0,1.5.5,1.5.5l3.1.8,1.5.4.9.2.7.2,3,1,1.5.5,1.5.5.5.2,1,.4,1.5.5,2.9,1.1,1.3.5h.2l1.4.8,1.4.7,1.4.7,1.4.7,1,.5.4.2,4.1,2.3,1.4.8,1.7,1,1,.6,5.3,3.3,1.4.9,3.8,2.5,2.6,1.7,1,.7,1.6,1.1,2.6,1.8,2.6,1.7,1.3.9,1.3.9,1.3.9,1.3.9h.2c0,0,1.1.9,1.1.9l1.3.9,1.3.9,1.3.9h0l3.1,3.8.2,4.1h0l-3.1,2.6-4.8.3h0l-1.5-.4-1.5-.4-.6-1.6ZM586.9,711.8v-1.6c0,0-.2-.3-.2-.3l-.3,2.6-2.4,3.2h.7c0,0,.4-.3.4-.3h0l.5-.4h0l.6-.6.6-1,.3-1.5h-.2ZM644.3,742.3l2.3,4.4-.3,3.8h0l-3.3,1.9-5-.3h0l-1-.3-1-.3-1-.3-.8-.2h-.3l-1-.4-1-.3-1-.4-1-.3-1-.4-1-.3-1-.4-1-.4-.7-.3-1.3-.5-2-.8-2.1-.8-1.8-.8-1.9-.8-1.6-.7h-.3c0,0-1.9-1.1-1.9-1.1l-.9-.5-.9-.4-.9-.4h0l-.9-.6-.9-.5-.9-.5-.9-.5-.5-.3-.4-.3-1.6-1.2-.8-.6-.7-.5h0c0,0-.8-.8-.8-.8l-2.3-2-.3-.2-.5-.5-2.2-2.1-.8-.7-1.4-1.4-.7-.7-.7-.7-.4-.4-.3-.3-.4-.4-.4-.4-.7-.7-.7-.7-.3-.4-.4-.4-.4-.4-.7-.7-.4-.3-.3-.4-.7-.7-.4-.3-.4-.4-.4-.4-.7-.7-1.1-1.1-.4-.4h.5c0,0,0,0,0,0h.4,0,0,0,0-.5c0,0-.2,0-.2,0,0,0-.5-.4-.5-.4h-.3c0,0-.4-.3-.4-.3h-.2l-.2-.2h-.3c0,0-.4-.3-.4-.3l-.3-.2-.3-.2-.4-.3-.5-.4-.6-.7-.3-.5-.2-.3v-.3c0,0-.4-.7-.4-.7h0v-.8c0,0,0-1.5,0-1.5,0,0,.4-.7.4-.7h0l.3-.6.3-.5.3-.4.6-.5.5-.3.4-.2h.3c0,0,.2-.2.2-.2h.2l3.7.2,2.1,2.1v-.3h0l-.6-.8h0l-.5-.5h0l-.4-.3h0l-.3-.2h-.3c0,0-.3,0-.3,0h0c0,0-.3,0-.3,0h0c0,0-.2,0-.2,0h0,1.3c0,0,.4,0,.4,0h1.5c0,0,.4,0,.4,0l.3.2h.6c0,0,.6.2.6.2h.6l.6.2h.5l.6.2h.6l.6.2h.5c0,0,.6.2.6.2l1.1.2h.5c0,0,1.1.3,1.1.3h.5c0,0,.6.2.6.2h.5c0,0,.6.2.6.2h.5c0,0,1.1.4,1.1.4h.6c0,0,.6.3.6.3h.5c0,0,.5.3.5.3l1.1.3,1.1.3,1.1.3,1.1.3,1.1.4,2.1.8,1,.4.7.2.4.2,1,.5,1,.4,1,.5,1,.5h.2l.8.5,1.9,1.1.9.5.4.3.5.3.9.6,1.7,1.3.9.6h0l.8.7.8.7.8.7,1.6,1.4.3.2,1.3,1.3,1.5,1.5,1.4,1.4,1.6,1.7,1.4,1.6.9,1,.5.6.7.8,2.8,3.2,2.1,2.3,2.7,3.2h-.9ZM690.1,637.4h0l.5-4.1-2.5-4.8h0l-3.4-4h0l-3.5-3.9-1.8-2-1.8-2-1.5-1.7-2.1-2.2-1.8-1.9-.9-1-.6-.6-1.3-1.3-.9-.9-2.8-2.8-.6-.6-.3-.3-1-.9-1-.9-1-.9-1-.9-1-.9-.5-.4-.6-.4-1.1-.8-2.1-1.6-1.1-.8-.5-.4-.5-.4-1.1-.7-1.1-.7-1.1-.7-1.1-.7-.3-.2-.9-.5-3.5-1.9-1.2-.6h-.2c0,0-1-.6-1-.6l-1.2-.6-1.2-.6-1.2-.6-1.2-.5-.3-.2-.9-.4-1.3-.5-1.2-.5-1.3-.5-1.3-.5h-.3c0,0-.9-.5-.9-.5l-1.3-.5-1.3-.4-1.3-.4-1.3-.4-1.3-.4-1.3-.4-1.3-.4h-.2l-.2-.2h-.2l-.2-.2h-.4c0,0-.4-.2-.4-.2h-.4l-.3-.2h-.7c0,0-.6,0-.6,0h-.3c0,0-.3,0-.3,0h-3.5c0,0-.4,0-.4,0h-1.9,0-.2,0-.2,0-.2,0-.2.2-.2.2-.2.2-.2.8c0,0,0,0,0,0h0c0,0,0,0,0,0h0c0,0,0,0,0,0h0c0,0,0,0,0,0h0c0,0,0,0,0,0h0c0,0,0,0,0,0,0,0,0,0,0,0v.2c0,0,0,0,0,0v.2c0,0,0,0,0,0v.2c0,0,0,0,0,0v.2c0,0,0,0,0,0v.2h0v.2h0v.2h0v.2h0v.2h0v.2h0v.2h0v.2h0v.2h0v.2h0v.2h0v.2h0v.2h0c0,0-1.4-3.7-1.4-3.7l-2.6-1.8h0l-3.3.9-2.1,3.1v.7c0,0,0,.2,0,.2v2.6c0,0,0,.3,0,.3l.2.3.2.5v.2c0,0,.3.2.3.2v.2c0,0,.3.2.3.2l.2.2.3.4.2.2.3.3.2.2.2.2.3.3h.2c0,0,.2.3.2.3h.2c0,0,.2.2.2.2h.2c0,0,.2.2.2.2h.2c0,0,.3.3.3.3l.3.2.6.3h.3c0,0,.5.4.5.4h.3c0,0,.3.2.3.2h.3c0,0,.3.2.3.2h.2c0,0,.2.2.2.2h.2c0,0,.2.2.2.2l.5.2.4.2.4.2.4.2.4.2.4.2.3.2h0l.2.2h.6,0,.2,0,.2c0,0,0,0,0,0h.2-.2.2c0,0-.2,0-.2,0h.2c0,0-.2,0-.2,0h.2c0,0-.2,0-.2,0h.2c0,0-.2,0-.2,0h0c0,0-.2,0-.2,0h-.3l1,.9,1.9,1.7.9.9.9.9.9.9.9.9.7.6.3.2.9.9.9.9.9.9.9.9.7.6.2.2,1,.8.9.8.9.9,1,.8.8.7.2.2,2,1.6,1,.8,1,.8.8.6.2.2,3,2.3,1,.8.5.4.5.4,1.1.7,1.1.7,1.1.7,1.1.7.6.4.5.3,1.1.6,1.1.6,1.1.6,1.1.6,1.1.6.3.2.8.4,1.2.6,1.1.6,1.1.6,1.1.6,1.1.6.4.2.7.4,1.2.6,2.3,1.2,2.3,1.2.3.2,2,1,2.4,1.2,2.4,1.1,4.7,2.3,4.8,2.2h0l5.3,1.1,3.7-1.5-.5.9ZM761.3,540.8l-1.3-4.6-.8-2.7-1.1-3.6-.6-1.8-.6-1.8-.3-1.1-.2-.7-.6-1.8-.6-1.8-.6-1.8-.2-.6-.4-1.1-.7-1.8-.7-1.7-.7-1.8v-.3c0,0-.8-1.4-.8-1.4l-1.5-3.4-.6-1.4-.2-.3-.9-1.7-.9-1.6-.4-.8-.4-.8h0l-.5-.8-.5-.8-.5-.8-1.1-1.6-.5-.7h0l-.6-.8-.6-.8-1.2-1.5-.6-.7-.6-.7v-.2c0,0-.6-.6-.6-.6l-.6-.7-1.9-2.1-.7-.8-.3-.3-.3-.3h0l-.3-.4-1-1-.4-.3-.4-.3-.4-.3-.8-.6-.4-.3-.8-.6-.4-.3-.4-.3h0l-.4-.3-.5-.3-.9-.6-.9-.7-.9-.6-1-.7-1.9-1.3-1-.6-.9-.6-.9-.6h0l-.9-.6-.9-.5-.9-.5-.8-.5-.8-.5-.7-.4-1.2-.7-.9-.5-.3-.2h0v-.2c0,0-.3-.2-.3-.2h0l-.5-.5-.6-.3h0l-.8-.3-.8-.2h-1.6c0,.1-.8.4-.8.4l-.7.4-.6.5-.6.6-.4.7-.3.8-.2.8v1.6l.3.8.4.7h0l2.3,1.3-.4.4-1.1-.7h-.2c0-.1,0,.1,0,.1l.2.3.5.9.7,1.2.4.7.4.8.4.8.5.8.5.9.5.9h0l.5.9.5.9,1.1,1.9.5,1,1,1.9.5.9.5.9.2.4.2.4h0l.2.4.2.4.2.4.2.4.2.4.2.4.2.3.2.3v.3c0,0,.3.3.3.3v.2c0,0,.2.4.2.4v.2h0c0-.1,0,.1,0,.1v.2h0c0-.1.4.7.4.7l.4.8.4.8.4.8.4.8.3.7h0c0,.1.4.9.4.9l.4.8.8,1.6.4.8.4.8h0l.4.8.4.8.9,1.6.9,1.6h0l.5.7.5.8,2,3,.2.3.9,1.2,1.1,1.4,1.1,1.5.9,1.2.2.2,1.2,1.4,2.3,2.8.8.9.4.5,3.6,4.2.4.5.8.9,2.5,2.8,2.5,2.8,1.8,2.1,3.2,3.5h0l4.5,3.1h4c0,0,2-3.4,2-3.4l-.3-5.5h0l-.4.6ZM806.3,408.7l-.4-.3-.2,1.6.6-1.3h0ZM805.5,410.4l-2.1,3h0c0,.1.3.1.3.1h0c0-.1.8-.6.8-.6l1.2-2.6h-.1ZM803.7,414.4h.2-.2.2-.2,0-.2,0-3l.2.2h0l.4.2h0l.4.2h2.8-.2l-.6-.6ZM829.5,452.7v3.6h0l-1.1,5.2-2.4,2.8h0l-3.6-.8-4-3.4h0l-1.1-1.4-1-1.2v-.2c0,0-1.2-1.4-1.2-1.4l-1.1-1.4-1-1.3-1.1-1.3-.4-.6-.6-.8-1-1.4-1-1.3-.2-.2-1.7-2.5-.9-1.4-.8-1.4-.8-1.4-.6-1-.2-.4-.7-1.5-.7-1.5h0l-.2-.8-.5-1.5-.2-.8v-.4c0,0-.2-.3-.2-.3l-.7-3.2v-.8c0,0,0-.8,0-.8,0,0-.2-.8-.2-.8v-.8c0,0-.2-.8-.2-.8h0v-1.7l-.2-.8v-1.3c0,0,0-.3,0-.3v-1.7c0,0,0-.9,0-.9v-.9c0,0,0-.9,0-.9v-.9c0,0,0-1.7,0-1.7,0,0-.2-.3-.2-.3v-.8l-.5-.3-.6-.6-.5-.6-.4-.7-.3-.8v-.8c0,0,0-.8,0-.8l.2-.8.3-.8.4-.7.5-.6.6-.5.4-.3.6-.3h.3l2,.2-.6-.6h-.9l.2-.2.3-.2.3-.2h.2c0-.1.2-.2.2-.2h.2c0-.1.3-.2.3-.2h.3l.3-.2h.3l.3-.2h2.4c0,.1.4.1.4.1l.4.2.4.2.5.2.5.3.5.3.5.4.5.5.4.6.3.5.7.8.7.6.4.4.2.2.6.6.6.6.6.6.6.6.6.7.6.6.6.7.6.6.2.2.4.4,1.1,1.3.5.7.6.7h0l.5.7.5.7.5.7.5.7.4.6v.2c0,0,.6.7.6.7l.5.7.5.7.4.7.2.3.2.4.4.8.4.8.4.8.3.6h0c0,.1.5,1.7.5,1.7l.5,1.6.2.5.2,1.2.3,1.7.3,1.7.2,1.7.2,1.7.2,1.4v2c0,0,0,1.7,0,1.7,0,0,.2,1,.2,1v7.7l.4.5ZM896.8,370.8v3.8h0l.2,1.2.2,1.3v1.3c0,0,.3,1.3.3,1.3v.3l.2.9.2,1.3.2,1.3.2,1.3.2,1.3h0l.3,1.3.6,2.5.5,2.5v.2l.6,2.3.6,2.5.4,1.6.2.9.3,1.2.4,1.2.7,2.4.7,2.4.4,1.2.3,1.2h0c0,.1.3,1.1.3,1.1l.4,1.1.4,1.1.2.6.2.6h0l2.7,4,3.6,1.4h0l3.3-2.1,2-4.4h0l.2-1.1.2-1.1.2-1.1.2-1h0c0-.1.4-2.4.4-2.4l.4-2.3.4-2.4.2-1.2.2-1.2.2-.9.2-1.6.4-2.5.4-2.3v-.2l.3-2.6.3-2.6v-1.3h0v-1.3l.2-1.3v-1.3l.2-1.3v-5.3c0,0,0-1.3,0-1.3h0l-.4-2.7v-.7c0,0-.3-1.3-.3-1.3v-.7c0,0,0-.7,0-.7,0,0-.3-.7-.3-.7l-.2-.7-.3-1.3-.2-.7-.2-.7-.2-.7h0l-.2-.7-.2-.7-.4-1.3-.2-.6-.2-.7-.4-1.3v-.4c0,0-.2-.2-.2-.2l-.2-.6-1.2-3.2-.3-.6-.2-.6v-.2l-.3-.4-.3-.6-.3-.6-1.2-2.4-.6-1.2-.3-.6-.6-1.2-.3-.6-.3-.6-.3-.6-.3-.6-.3-.6h0l-.3-.6-.4-.6-.3-.6-.7-1.1-.4-.5-.4-.5-.3-.5-.7-1-1.1-1.5-.2-.2-.2-.2h0l-3.1-2.4-3.1-.2h0l-2,2.3-.6,3.9h0v2.2c0,0,0,.6,0,.6v5.2h0v14.9c0,0,0,.2,0,.2v11.4l-.6-1.3ZM995.3,395h0l3.7-.4,4-3h0l.5-.6.5-.6.5-.6.7-.8.4-.4.6-.6,1.2-1.4,1.3-1.4,1.3-1.5.6-.7.7-.8,1.3-1.6,1.1-1.3,1.6-2.1,1.4-1.8,1.2-1.8,1.2-1.9.2-.2.9-1.7,1-1.9h0c0-.1.8-2.3.8-2.3l.5-1.4.2-.8.5-2.2.2-1,.2-1.1.2-1.1.2-1.1.2-.9v-1.3c0,0,0-1,0-1,0,0,.2-1,.2-1v-.9h0v-2c0,0,0-1,0-1v-.9c0,0,0-.9,0-.9v-10.2h0l-1.3-3.8-2.3-2h0l-5.8,3.6-.2.3h0c0,.1,0,.1,0,.1,0,.1,0,.3,0,.3l-.5.5-.2.2-.2.2-.2.2-.2.2-.4.5-.4.5-.5.5-.5.5-.2.2-.3.4-.5.6-.5.6-.5.6-.6.7-.6.7-.6.7-.6.7-.7.7h0l-.5.8-.6.8-.6.8-.7.8h0c0,.1-.5.8-.5.8l-.6.8-.6.9-.7.9-.6.9-1.2,1.8-.4.6-.7,1.3-1,2h0c0,.1-.7,2.1-.7,2.1l-.7,1.8v.3l-.6,2.2-.5,2.1-.4,2.3-.5,2.6-.2,1.7-.3,2.1-.2,1.1v1c0,0-.3,2-.3,2l-.2,1.9-.2,1.8-.2,1.5v2.7c0,0,0,.8,0,.8l.7,4.9,2.3,2.9-.6-.5ZM1095.8,396.4l1,1.3.8.2-1.9-1.5h0ZM1098.8,398.2l1.1.3,1.8-.5-2.9.2ZM1060.6,457.6l-1.6-3.5.6-5.1.6-1.7.5-1.7v-.4c0,0,.6-1.3.6-1.3l1.2-3.3.6-1.6.6-1.6.4-1,.2-.6.6-1.6.6-1.6.6-1.5h0c0-.1,1.3-3.2,1.3-3.2l.6-1.6.2-.4.2-.3.4-.8.4-.7.7-1.5.3-.8.3-.8.4-.7.4-.7.4-.7.4-.7.4-.7.3-.5.2-.2.9-1.3.5-.7.5-.7.4-.6h0l.5-.7.5-.6.5-.6.5-.6.5-.6.2-.3.3-.3.6-.6.6-.6,1.1-1.2.6-.6h0l.5-.6.6-.6.6-.6.6-.6.6-.6.4-.4.2-.2.6-.6h0c0,.1,0,0,0,0h.2c0-.1.2-.3.2-.3l.3-.3.3-.3.3-.3.3-.4.4-.4.8-.9.8-1,.9-1,.5-.5.4-.5.9-1,.4-.5.4-.4.4-.4.4-.4.3-.4.3-.3.3-.3.2-.3h0l.2-.2.2-.2h0c0,.1,0,0,0,0v.2h0v.4h0v.6h0v.7h0l.3,1.3.2.3v-3l2-3.3h0l.6-.3.6-.2h.6c0-.1.8-.1.8-.1h.8c0,.1.8.4.8.4l.7.4.5.4.5.5.4.6.3.6h0l.2.7v.7c0,0,.2.4.2.4v1.7h0v4.5c0,0,0,.6,0,.6v.7c0,0,0,1.4,0,1.4,0,0-.2.6-.2.6v.8c0,0-.3,1.4-.3,1.4l-.2,1.3-.2,1.2v.6l-.2.6v.5l-.2.5v.4l-.2.4v.4c0,0-.2.3-.2.3l-.2.9v.3l-.2.6-.2.9-.2.9-.2.9-.3.9-.2.8h0l-.3.9-.3.9-.3.8-.3.9-.3.8-.2.4-.2.4-.3.8-.4.8-1.1,2.4h0l-.4.8-.4.8-.4.8-.4.8-.4.8v.3c0,0-.5.5-.5.5l-.5.7-.5.7-.5.7-.5.7-.5.7h0l-.6.7-1.2,1.3-.6.7-1.2,1.3-.2.3-.4.4-1.2,1.3-2.5,2.5h0l-1.2,1.2-2.6,2.4-.5.4-.8.7-1.4,1.2-1.3,1.1-1.4,1.1-1.3,1.1-1.1.9-.3.2-2.8,2.2h0l-4.6,2.2-3.8-.4h0l-.4-.3ZM1151.8,494.5v.6h0v.7h0v.7h0l.2.6h0l.2.5h0l.3.4h0l.3.4h0l.3.3h0l.3.2h0l.3.2h.2c0,.1.2.1.2.1h1,0l-2.4-3.2-.2-1.5h0c0,.1,0,0,0,0h-.6ZM1153.5,491.2h0ZM1102.7,522.5l2.5-4.9,1.6-2.2.4-.5,1.3-1.6,1.7-2.1,1.7-2.1.4-.5,1.4-1.6.9-1,.9-1h0l.8-1,.9-.9.9-.9.8-.8.2-.2,1-.9,1-.9,1-.9.4-.3.7-.5,1.1-.8,1.1-.8.5-.4.6-.3,1.2-.6,1.2-.6.5-.2.7-.3,1.3-.5,1.2-.5.6-.2.7-.2,1.3-.4,1.3-.4.8-.2h.6c0-.1.2-.2.2-.2l.5-.2h.3l.4-.2h.5c0-.1.5-.2.5-.2h.4l.9-.2h.8c0-.1.4-.1.4-.1h6.8c0,.1.7.1.7.1h1.8c0,.1.3.1.3.1h1.3,0,.2,0,.2,0,.2l.3-.3,3.8-.7h.9c0,.1.3.2.3.2h.2c0,.1.3.2.3.2l.3.2.3.2.3.2.3.3.3.3.3.4.3.5.3.6.2.6.2.7v2.1l-.3.6-.2.5-.2.5-.2.4-.2.3-.2.3-.2.3-.2.2-.2.2-.2.2-.4.3-.2.2h-.2c0,.1-.2.3-.2.3h-.2c0,.1-.2.3-.2.3h-.2c0,.1-.6.6-.6.6l-.3.2-.3.2-.3.2-.3.2-.3.2-.3.2-.3.2-.6.5-.3.2h0l-.2.2-.6.4-.6.4-1.2.9-.6.4-.6.4-.6.4-.6.4-.2.2-.2.2-.2.2-.2.2h0l-.2.2-.2.2-.2.2-.2.2h0c0,.1-.2.3-.2.3h0-.2v.3c0,0,0,0,0,0h0v.3h.5l-.3.4-.5.5-1.8,1.8-.5.5-.4.4-.9.8-.9.8-.6.5-.4.3-1,.7-1,.7-.5.4-.5.3-1.1.6-1.1.6-.7.4-.4.2-1.2.5-1.2.5-1.2.5h-.2l-1,.4-2.4.9-1.1.4h0l-1.3.4-1.3.4-2,.6-.6.2-2.6.7-2.6.7-2,.5-.6.2-2.6.6h0l-5.4.3-3.4-1.5h0v-3.7l-.7.8ZM1186.7,589.6l-1.8-3.1v.4h0l.3,1h0l.6,1,.8.8h0ZM1194.5,586.2v.6l-.2.5v.4c0,0-.2.3-.2.3h0v.3l-.2.3-.2.3v.3c0,0-.3.2-.3.2v.2c0,0-.3.4-.3.4v.2l-.2.2v.2l-.2.2-.2.4-.2.4-.2.4-.2.5-.2.5-.2.5-.2.5-.2.5-.2.4h0c0,0-.2.6-.2.6l-.5.9-.5.8-.4.8-.4.7-.3.5-.2.5-.8,1.5-1.9,3.2h0l-1.5,2.3-.5.8-1.1,1.3-.8,1.1-.4.5-.5.5-.9,1-1,1-1,.7-1.1.8-.9.6h-.2c0,0-1.2.8-1.2.8l-1.2.7-1.1.6h0l-3.7,1.8-.4.2-.9.4-2.6,1-.7.3-.6.2-1.3.5-1.3.5-3.8,1.3h-.2l-1.4.5-1.4.4h0l-5.2.5-3.4-1.3h0l-.4-3.6,1.9-4.9.7-1.2.7-1.2v-.2c0,0,.7-.9.7-.9l.7-1.2.7-1.1.7-1.2.7-1.1.3-.6.4-.6.7-1.1.7-1.1.5-.8.2-.3.8-1.1.8-1.1.8-1.1h0l.8-1,.8-1,.8-1,.2-.2.7-.7.9-.9.9-.9h0l1-.8,1.1-.7.6-.4.5-.3,1.1-.6,1.4-.8.9-.4,2.4-1.2h0l3.5-1.5,1.6-.6.6-.2.6-.2.7-.2.8-.2.9-.3.9-.3h.4c0,0,0-.2,0-.2h.3l.9-.4.9-.3h.4c0,0,.4-.2.4-.2h.4c0,0,.3-.2.3-.2h1.1-.2c0,0-.2.3-.2.3h0l-.2.2h0v.2h0v.3h0v.4h0v.5h0v.7h0v.4l1-3.5h0l2.7-1.2,4,.4h0l.4.4.4.4h0l.3.5.3.5.2.5.2,1v.8h0ZM1148.1,725.8h0l-2.9.9-2.7,2.9h0c0,0,0,0,0,0h0v-.2h0v-.2h0c0,0,0,0,0,0h-23.5l-1.3.2h-1.4c0,0-.6.2-.6.2h-.7c0,0-.7,0-.7,0,0,0-.7.2-.7.2l-1.4.2h-.7c0,0-.7.3-.7.3l-2.7.8-1,.3h-.3c0,0-1.3.6-1.3.6l-1.3.5-1.3.5-.7.2-.6.3-1.3.5-1.2.5-1.2.5-.8.3-.4.2-1.2.5-1.2.5-1.1.5-1.1.5h0l-2.1,1-2,1-3.4,1.7-.8.4-.6.3-.6.3-.6.3-.5.3-.5.3-.4.2-.4.2-3.5,3.3-.9,3.7h0l2.4,2.8,4.7,1.5h1.7c0,0,.6,0,.6,0l.7.2h.6l.9.2,3.8.3,2.2.2,2.3.2h2.6c0,0,1.3,0,1.3,0h9.8c0,0,1.5,0,1.5,0,0,0,1.5-.2,1.5-.2h.4l1.1-.2,2.9-.5h.7c0,0,.7-.3.7-.3l1.4-.4.7-.2.7-.2.7-.2h0l.7-.3.7-.3,1.4-.6.7-.3.7-.3.4-.2.3-.2.7-.3,1.3-.6.7-.3,1.6-.8.3-.2.6-.3,1.2-.7.6-.3.6-.4.6-.3.4-.2h.2c0,0,.6-.5.6-.5l.6-.4.5-.4.6-.4.5-.4.5-.4.5-.4.5-.4.5-.3.5-.4.9-.7.9-.7.4-.4.4-.3h0l.2-.2.2-.2.2-.2.8-.7.2-.2.2-.2.6-.6.2-.2.2-.2.2-.2.2-.2.2-.2.2-.2.2-.2.3-.4.2-.2.2-.2.2-.2.6-.9.3-.5.4-.7v-.3c0,0,.4-.6.4-.6v-.3c0,0,.2-.3.2-.3v-.3c0,0,.2-.3.2-.3v-.5h0v-.6l-1.1-3.6-2.7-1.9,1.8.3ZM1111.1,883.7l-2.8,1.1v.2l2.8-1.3ZM1116.3,887.4v.8c0,0,0,.8,0,.8l-.2.8-.3.8-.4.7-.6.6-.5.4-.6.3-.6.3-.7.2h-.7l-3.4-2-.2-.3v.8l1.5,1.1h0l.5.2h.3-.5l-.4.2-.9.2-1.2.2-1.3.3-.7.2h-.8c0,0-1.5.4-1.5.4l-4.4.7-1.8.2h-1.3c0,0-.5.2-.5.2h-6.6c0,0-.5,0-.5,0l-3.2-.5h-.3c0,0-2.9-1.1-2.9-1.1l-3.6-1.7-1-.6-2.7-1.5-1-.6-2.6-1.6-1-.7-3.6-2.4-1.2-.8-2.3-1.7h0l-4.1-4-1.3-3.3h0l2.7-2.4,5.5-1.7,2.9-.4,1.4-.2,4.3-.5,1.2-.2,3-.2h1.1l3.1-.2h1.2l4,.2,3,.5h.3l3,1.1.5.2,2.6,1.2,1.1.6.5.3.8.4.6.3.4.3,1.1.7,1.5.9,3.6,2.6,1.3.9.6.4.6.5,1.1.8.9.8.8.6.3.3.3.2.3.2h.2c0,0,.4.3.4.3h.2c0,0,.6.4.6.4l.5.4.5.4.5.7.4.7.3.8v.6ZM1058.2,1010.4l1.7,3.6-.4,3.1h0l-2.7,1.5-3.9-.2h-.3l-.2-.2-.6-.2-1.3-.4-1.5-.5-1.8-.6-2-.6h-.3c0,0-1.8-.8-1.8-.8l-4.7-1.7-3.2-1.1-2.1-.9-2.8-1.1h-.2c0,0-2.5-1.2-2.5-1.2l-2.5-1.1-.3-.2-2.8-1.4-1.6-.8-1.1-.7-2.7-1.6-.5-.3-2.1-1.6-2.2-1.7-.3-.2-1.2-1-2.4-2-.8-.7-.3-.3-1.1-1.1-1.1-1-1.1-1-1.1-1-1-1-1-1-2.5-2.5-.3-.4-.9-.9-.9-.9-.8-.9-.8-.8-.8-.8-.7-.8-.7-.7-1.3-1.3-.6-.6-.3-.3-.2-.3-.3-.3-.2-.2-.2-.2-.2-.2-.2-.2-.2-.2-.2-.2-.2-.2h0l-2.7-4.1v-3.8h0l3.1-2.4,4.7-.2h.3l.7.2.7.2h.4c0,0,.4.2.4.2l.8.2h.4c0,0,.4.3.4.3h.5v.2h.4c0,0,.5.3.5.3l1,.3,1,.4,1.1.4,1.1.4,1.2.4,1.2.4,1.2.4,1.3.5.5.2.8.3,1.3.5,1.3.5,1.4.6,1.3.5h0l1.4.7,1.4.6,1.4.6,1.4.6.4.2,1,.5,2.8,1.4,1.4.7.4.2,2.4,1.5,2.3,1.4.4.4,2.5,1.9,1.1.8,1.4,1.2,2.4,2.1.3.2,2,1.9,2,2,.2.2,2,2.2,1.5,1.7,2.2,2.5,3.3,3.8,1.2,1.5.2.3,1.3,1.6,1.2,1.4,1,1.2.8,1,.4.4v.2c0,0,.3.2.3.2h0"/>
</svg>