<?xml version="1.0" encoding="UTF-8"?>
<svg id="peach" xmlns="http://www.w3.org/2000/svg" xmlns:xlink="http://www.w3.org/1999/xlink" version="1.1" viewBox="0 0 1920 1920">
  <!-- Generator: Adobe Illustrator 29.2.1, SVG Export Plug-In . SVG Version: 2.1.0 Build 116)  -->
  <defs>
    <style>
      .st0 {
        fill: none;
      }

      .st1 {
        fill: #dd2e44;
      }

      .st2 {
        fill: #ff886c;
      }

      .st3 {
        fill: #77b255;
      }

      .st4 {
        fill: #5c913b;
      }

      .st5 {
        clip-path: url(#clippath);
      }
    </style>
    <clipPath id="clippath">
      <rect class="st0" x="26.2" y="265.3" width="1868" height="1650.7"/>
    </clipPath>
  </defs>
  <g id="meat-peach">
    <g class="st5">
      <path class="st2" d="M933.5,319.7s55.6-47.8,320.2-47.8,640.5,256.8,640.5,689.8c0,615.3-798.3,954.1-798.3,954.1,0,0-1069.7-57.6-1069.7-957S386.4,266.3,613.3,266.3s320.2,53.4,320.2,53.4h0Z"/>
    </g>
  </g>
  <g id="leaf-peach">
    <path id="back-leaf" class="st4" d="M29.5,273S289.7,6.2,563.2,6.2s423.7,263.4,423.7,263.4c0,0,33.4-213.4,266.9-213.4s370.3,166.8,370.3,166.8c0,0-190.1,113.4-246.8,136.7-149.5,61.5-607.1,190.1-820.6,136.7C343.1,443,29.5,273,29.5,273Z"/>
    <path id="front-leaf" class="st3" d="M29.5,273S289.7,6.2,563.2,6.2s423.7,263.4,423.7,263.4c0,0-216.8,280.1-430.3,226.8C343.1,443,29.5,273,29.5,273Z"/>
  </g>
  <path id="mid-meat-peach" class="st1" d="M1200.3,1600.3c-10.1,0-20.4-2.9-29.6-9-24.6-16.4-31.2-49.5-14.8-74,.8-1.2,97.8-155.1,97.8-504s-244.3-543.3-246.8-545.3c-23-18.4-26.7-52-8.3-75,18.5-23,52-26.7,75-8.3,11.7,9.3,286.9,233.9,286.9,628.6s-111,556.1-115.7,563.2c-10.3,15.4-27.2,23.7-44.5,23.7h0Z"/>
</svg>