<?xml version="1.0" encoding="UTF-8"?>
<svg id="watermelon" xmlns="http://www.w3.org/2000/svg" xmlns:xlink="http://www.w3.org/1999/xlink" version="1.1" viewBox="0 0 1920 1920">
  <!-- Generator: Adobe Illustrator 29.2.1, SVG Export Plug-In . SVG Version: 2.1.0 Build 116)  -->
  <defs>
    <style>
      .st0 {
        fill: #ffe8b6;
      }

      .st1 {
        fill: #dd2e44;
      }

      .st2 {
        fill: #5c913b;
      }
    </style>
  </defs>
  <g id="rind-water">
    <path class="st2" d="M131.8,350.5c-50.3,113.4-78.5,238.2-78.5,369.5,0,515.5,429.8,933.3,960,933.3s764.3-254.2,899.6-610.1L131.8,350.5Z"/>
    <path class="st0" d="M231,389.1c-45.5,101.4-71,213.2-71,330.9,0,458.2,382.1,829.7,853.3,829.7s681.1-227.2,800.7-545L231,389.1Z"/>
  </g>
  <path id="meat-water" class="st1" d="M330.2,427.7c-40.6,89.5-63.5,188.2-63.5,292.3,0,401,334.3,725.9,746.7,725.9s597.9-200.2,701.7-479.7L330.2,427.7Z"/>
  <path id="seeds-water" d="M528.9,761.4c-16.4,24.5-39.5,37.8-51.8,29.6s-9-34.6,7.4-59.2c16.4-24.5,39.5-37.8,51.8-29.6,12.3,8.2,9,34.6-7.4,59.1h0ZM848.9,814.8c-16.4,24.5-39.5,37.8-51.8,29.6s-9-34.6,7.4-59.2c16.4-24.5,39.5-37.8,51.8-29.6s9,34.6-7.4,59.1h0ZM1119.9,1064.3c2.7,29.4-7,54.2-21.7,55.5s-28.7-21.3-31.4-50.7c-2.7-29.4,7-54.2,21.7-55.5,14.7-1.4,28.7,21.2,31.4,50.7ZM639.9,957.6c2.7,29.4-7,54.2-21.7,55.5s-28.7-21.3-31.4-50.7,7-54.2,21.7-55.5c14.7-1.4,28.7,21.2,31.4,50.7ZM847.9,1242.7c-17.8,23.5-41.6,35.4-53.3,26.5-11.8-8.8-6.9-35.1,10.9-58.6,17.8-23.5,41.7-35.4,53.3-26.5,11.8,8.9,6.9,35-10.9,58.6ZM1276.5,1266.9c14.6,25.7,15.9,52.2,3.2,59.5-12.9,7.3-35-7.6-49.5-33.3-14.6-25.6-15.9-52.2-3.1-59.5,12.8-7.4,34.9,7.5,49.5,33.3h0ZM902.3,998.8c16.2,24.7,19.3,51.1,7,59.2s-35.4-5.3-51.5-30-19.3-51.1-7-59.1c12.3-8.2,35.4,5.2,51.5,29.9h0ZM1381.3,1082.7c-17.8,23.5-41.6,35.4-53.4,26.5-11.8-8.8-6.9-35.1,10.9-58.6,17.8-23.6,41.6-35.4,53.3-26.5,11.8,8.9,7,35-10.9,58.6h0Z"/>
</svg>